<?xml version="1.0" encoding="UTF-8" standalone="no"?>
<!-- Created with Inkscape (http://www.inkscape.org/) -->

<svg
   xmlns:dc="http://purl.org/dc/elements/1.1/"
   xmlns:cc="http://creativecommons.org/ns#"
   xmlns:rdf="http://www.w3.org/1999/02/22-rdf-syntax-ns#"
   xmlns:svg="http://www.w3.org/2000/svg"
   xmlns="http://www.w3.org/2000/svg"
   xmlns:xlink="http://www.w3.org/1999/xlink"
   xmlns:sodipodi="http://sodipodi.sourceforge.net/DTD/sodipodi-0.dtd"
   xmlns:inkscape="http://www.inkscape.org/namespaces/inkscape"
   width="85.724998mm"
   height="85.724998mm"
   viewBox="0 0 85.725 85.725"
   version="1.1"
   id="svg6883"
   inkscape:version="0.92.2 5c3e80d, 2017-08-06"
   sodipodi:docname="launcher_round.svg">
  <defs
     id="defs6877">
    <linearGradient
       inkscape:collect="always"
       id="linearGradient5585">
      <stop
         style="stop-color:#ffffff;stop-opacity:1;"
         offset="0"
         id="stop5581" />
      <stop
         style="stop-color:#ffffff;stop-opacity:1"
         offset="1"
         id="stop5583" />
    </linearGradient>
    <linearGradient
       inkscape:collect="always"
       id="linearGradient4951">
      <stop
         style="stop-color:#a82d00;stop-opacity:1"
         offset="0"
         id="stop4947" />
      <stop
         id="stop4959"
         offset="0.21707618"
         style="stop-color:#c55900;stop-opacity:1;" />
      <stop
         id="stop4955"
         offset="0.47729495"
         style="stop-color:#ff7f43;stop-opacity:1" />
      <stop
         style="stop-color:#e92f00;stop-opacity:1"
         offset="0.74648678"
         id="stop4957" />
      <stop
         style="stop-color:#742200;stop-opacity:1"
         offset="1"
         id="stop4949" />
    </linearGradient>
    <linearGradient
       inkscape:collect="always"
       id="linearGradient4922">
      <stop
         style="stop-color:#ff622a;stop-opacity:1"
         offset="0"
         id="stop4918" />
      <stop
         id="stop4928"
         offset="0.22169483"
         style="stop-color:#ab4600;stop-opacity:1" />
      <stop
         style="stop-color:#ff9928;stop-opacity:1"
         offset="0.50075233"
         id="stop4930" />
      <stop
         id="stop4926"
         offset="0.7463274"
         style="stop-color:#f38500;stop-opacity:1;" />
      <stop
         style="stop-color:#f55d00;stop-opacity:1"
         offset="1"
         id="stop4920" />
    </linearGradient>
    <linearGradient
       inkscape:collect="always"
       id="linearGradient2465">
      <stop
         style="stop-color:#8c8c8c;stop-opacity:1"
         offset="0"
         id="stop2455" />
      <stop
         id="stop2457"
         offset="0.28143653"
         style="stop-color:#ffffff;stop-opacity:1" />
      <stop
         id="stop2459"
         offset="0.54703265"
         style="stop-color:#f9f9f9;stop-opacity:1" />
      <stop
         style="stop-color:#ffffff;stop-opacity:1"
         offset="0.8177824"
         id="stop2461" />
      <stop
         style="stop-color:#8c8c8c;stop-opacity:1"
         offset="1"
         id="stop2463" />
    </linearGradient>
    <linearGradient
       id="linearGradient3681"
       inkscape:collect="always">
      <stop
         id="stop3677"
         offset="0"
         style="stop-color:#005000;stop-opacity:1" />
      <stop
         style="stop-color:#008a00;stop-opacity:1"
         offset="0.27927965"
         id="stop3685" />
      <stop
         id="stop3687"
         offset="0.4173342"
         style="stop-color:#008f00;stop-opacity:1;" />
      <stop
         style="stop-color:#005900;stop-opacity:1"
         offset="0.65938127"
         id="stop3689" />
      <stop
         id="stop3679"
         offset="1"
         style="stop-color:#005000;stop-opacity:1" />
    </linearGradient>
    <linearGradient
       id="linearGradient3608"
       inkscape:collect="always">
      <stop
         id="stop3604"
         offset="0"
         style="stop-color:#1c001c;stop-opacity:1" />
      <stop
         style="stop-color:#830083;stop-opacity:1"
         offset="0.23891085"
         id="stop3612" />
      <stop
         id="stop3616"
         offset="0.46706364"
         style="stop-color:#8a008a;stop-opacity:1" />
      <stop
         id="stop3614"
         offset="0.6690017"
         style="stop-color:#740074;stop-opacity:1" />
      <stop
         id="stop3606"
         offset="1"
         style="stop-color:#200020;stop-opacity:1" />
    </linearGradient>
    <linearGradient
       id="linearGradient1037"
       inkscape:collect="always">
      <stop
         id="stop1033"
         offset="0"
         style="stop-color:#ffffff;stop-opacity:1;" />
      <stop
         id="stop1035"
         offset="1"
         style="stop-color:#ffffff;stop-opacity:0;" />
    </linearGradient>
    <filter
       height="1.0398206"
       y="-0.019910315"
       width="1.0604082"
       x="-0.030204078"
       id="filter1876"
       style="color-interpolation-filters:sRGB"
       inkscape:collect="always">
      <feGaussianBlur
         id="feGaussianBlur1878"
         stdDeviation="0.71157473"
         inkscape:collect="always" />
    </filter>
    <radialGradient
       inkscape:collect="always"
       xlink:href="#linearGradient5585"
       id="radialGradient5589"
       cx="227.53223"
       cy="269.67285"
       fx="227.53223"
       fy="269.67285"
       r="29.545895"
       gradientTransform="matrix(0.02190101,0.94095612,-1.0211414,0.02376734,497.92317,49.165595)"
       gradientUnits="userSpaceOnUse" />
    <radialGradient
       inkscape:collect="always"
       xlink:href="#linearGradient5585"
       id="radialGradient5634"
       gradientUnits="userSpaceOnUse"
       gradientTransform="matrix(0.00349886,0.15032533,-0.16313558,0.00379702,122.57368,186.15409)"
       cx="227.53223"
       cy="269.67285"
       fx="227.53223"
       fy="269.67285"
       r="29.545895" />
    <radialGradient
       inkscape:collect="always"
       xlink:href="#linearGradient5585"
       id="radialGradient5672"
       gradientUnits="userSpaceOnUse"
       gradientTransform="matrix(0.00349886,0.15032533,-0.16313558,0.00379702,142.22137,190.21913)"
       cx="227.53223"
       cy="269.67285"
       fx="227.53223"
       fy="269.67285"
       r="29.545895" />
    <radialGradient
       inkscape:collect="always"
       xlink:href="#linearGradient5585"
       id="radialGradient5710"
       gradientUnits="userSpaceOnUse"
       gradientTransform="matrix(0.00349886,0.15032533,-0.16313558,0.00379702,141.67386,191.5879)"
       cx="227.53223"
       cy="269.67285"
       fx="227.53223"
       fy="269.67285"
       r="29.545895" />
    <radialGradient
       inkscape:collect="always"
       xlink:href="#linearGradient5585"
       id="radialGradient5760"
       gradientUnits="userSpaceOnUse"
       gradientTransform="matrix(0.00349886,0.15032533,-0.16313558,0.00379702,121.21866,190.86196)"
       cx="227.53223"
       cy="269.67285"
       fx="227.53223"
       fy="269.67285"
       r="29.545895" />
    <linearGradient
       inkscape:collect="always"
       xlink:href="#linearGradient3608"
       id="linearGradient8994"
       gradientUnits="userSpaceOnUse"
       gradientTransform="rotate(-0.25421,-1273.6447,-395.37865)"
       x1="27.738676"
       y1="107.79816"
       x2="61.935673"
       y2="107.86885" />
    <linearGradient
       inkscape:collect="always"
       xlink:href="#linearGradient1037"
       id="linearGradient8996"
       gradientUnits="userSpaceOnUse"
       x1="72.590401"
       y1="44.243206"
       x2="70.064705"
       y2="40.40789" />
    <linearGradient
       inkscape:collect="always"
       xlink:href="#linearGradient1037"
       id="linearGradient8998"
       gradientUnits="userSpaceOnUse"
       x1="72.590401"
       y1="44.243206"
       x2="70.064705"
       y2="40.40789" />
    <linearGradient
       inkscape:collect="always"
       xlink:href="#linearGradient2465"
       id="linearGradient9000"
       gradientUnits="userSpaceOnUse"
       gradientTransform="translate(-162.43537,15.035855)"
       x1="213.51874"
       y1="237.73334"
       x2="212.98959"
       y2="186.93333" />
    <linearGradient
       inkscape:collect="always"
       xlink:href="#linearGradient3681"
       id="linearGradient9002"
       gradientUnits="userSpaceOnUse"
       x1="121.8207"
       y1="104.37665"
       x2="131.38115"
       y2="104.44279" />
    <linearGradient
       inkscape:collect="always"
       xlink:href="#linearGradient4922"
       id="linearGradient9004"
       gradientUnits="userSpaceOnUse"
       x1="85.886673"
       y1="263.1868"
       x2="85.339165"
       y2="207.06723" />
    <linearGradient
       inkscape:collect="always"
       xlink:href="#linearGradient4951"
       id="linearGradient9006"
       gradientUnits="userSpaceOnUse"
       gradientTransform="matrix(1.2176342,0,0,1.2176342,32.203029,-47.630223)"
       x1="36.447807"
       y1="232.29495"
       x2="51.702019"
       y2="232.29495" />
  </defs>
  <sodipodi:namedview
     id="base"
     pagecolor="#ffffff"
     bordercolor="#666666"
     borderopacity="1.0"
     inkscape:pageopacity="0.0"
     inkscape:pageshadow="2"
     inkscape:zoom="1.6851852"
     inkscape:cx="162"
     inkscape:cy="162"
     inkscape:document-units="mm"
     inkscape:current-layer="layer1"
     showgrid="false"
     fit-margin-top="0"
     fit-margin-left="0"
     fit-margin-right="0"
     fit-margin-bottom="0"
     inkscape:window-width="1323"
     inkscape:window-height="723"
     inkscape:window-x="43"
     inkscape:window-y="1"
     inkscape:window-maximized="1"
     inkscape:snap-global="false" />
  <metadata
     id="metadata6880">
    <rdf:RDF>
      <cc:Work
         rdf:about="">
        <dc:format>image/svg+xml</dc:format>
        <dc:type
           rdf:resource="http://purl.org/dc/dcmitype/StillImage" />
        <dc:title />
      </cc:Work>
    </rdf:RDF>
  </metadata>
  <g
     inkscape:label="Layer 1"
     inkscape:groupmode="layer"
     id="layer1"
     transform="translate(-76.159878,-46.624477)">
    <g
       id="g1527"
       inkscape:export-filename="/Users/thuthuaungayenyein/Documents/android_workspace/FunnyFarmSlot/android/res/drawable-xxhdpi/ic_launcher.png"
       inkscape:export-xdpi="96"
       inkscape:export-ydpi="96">
      <g
         id="g1388">
        <circle
           style="opacity:1;fill:#0088aa;fill-opacity:1;stroke:none;stroke-width:15.19353294;stroke-linejoin:round;stroke-miterlimit:4;stroke-dasharray:none;stroke-opacity:1"
           id="path1758"
           cx="119.02238"
           cy="89.486977"
           r="42.862499" />
        <g
           id="g2330"
           transform="matrix(0.38832175,0.2876026,-0.2876026,0.38832175,107.86333,-33.134261)">
          <path
             inkscape:connector-curvature="0"
             id="ellipse2213"
             d="m 110.22318,194.41647 a 14.205599,16.600092 0 0 0 -0.59428,0.0347 14.2056,16.600093 0 0 1 13.35784,16.56528 14.2056,16.600093 0 0 1 -2.45618,9.3248 12.481799,8.9007832 0 0 1 0.73225,2.97654 12.481799,8.9007832 0 0 1 -11.88506,8.87921 12.481799,8.9007834 0 0 0 0.84543,0.0212 12.481799,8.9007834 0 0 0 12.48192,-8.90038 12.481799,8.9007834 0 0 0 -0.73225,-2.97654 14.205599,16.600092 0 0 0 2.45618,-9.3248 14.205599,16.600092 0 0 0 -14.20585,-16.60006 z"
             style="opacity:1;fill:#020202;fill-opacity:0.39320391;stroke:none;stroke-width:0.24655095;stroke-linejoin:round;stroke-miterlimit:4;stroke-dasharray:none;stroke-opacity:1" />
          <g
             transform="matrix(0.94350603,0,0,0.94350603,35.744651,164.8764)"
             id="g1105">
            <path
               sodipodi:nodetypes="ccac"
               inkscape:connector-curvature="0"
               id="path1059"
               d="m 85.994064,35.101414 c 2.885607,1.552608 5.041223,3.762206 5.928387,7.113413 0,0 5.172332,-6.319703 3.196203,-8.690841 -1.976132,-2.371134 -9.12459,1.577428 -9.12459,1.577428 z"
               inkscape:transform-center-y="0.54362471"
               inkscape:transform-center-x="0.23036639"
               style="opacity:1;fill:none;fill-opacity:1;stroke:#000000;stroke-width:0.21232575;stroke-linejoin:round;stroke-miterlimit:4;stroke-dasharray:none;stroke-opacity:1" />
            <path
               style="opacity:1;fill:#000000;fill-opacity:1;stroke:none;stroke-width:0.80249101;stroke-linejoin:round;stroke-miterlimit:4;stroke-dasharray:none;stroke-opacity:1"
               d="m 351.75287,124.19925 c -7.3288,-1.3047 -26.73529,8.46677 -26.73529,8.46677 4.62224,2.48701 8.74063,5.42682 12.2168,8.94531 L 359.10639,126.293 c -0.85797,-0.64226 -5.34677,-2.97879 -7.35352,-2.09375 z"
               transform="scale(0.26458333)"
               id="path1088"
               inkscape:connector-curvature="0"
               sodipodi:nodetypes="ccccc" />
          </g>
          <g
             transform="matrix(-0.94350603,0,0,0.94350603,183.88195,164.47923)"
             id="g1101">
            <path
               style="opacity:1;fill:none;fill-opacity:1;stroke:#000000;stroke-width:0.21232575;stroke-linejoin:round;stroke-miterlimit:4;stroke-dasharray:none;stroke-opacity:1"
               inkscape:transform-center-x="0.23036639"
               inkscape:transform-center-y="0.54362471"
               d="m 85.994064,35.101414 c 2.885607,1.552608 5.041223,3.762206 5.928387,7.113413 0,0 5.172332,-6.319703 3.196203,-8.690841 -1.976132,-2.371134 -9.12459,1.577428 -9.12459,1.577428 z"
               id="path1095"
               inkscape:connector-curvature="0"
               sodipodi:nodetypes="ccac" />
            <path
               sodipodi:nodetypes="ccccc"
               inkscape:connector-curvature="0"
               id="path1097"
               transform="scale(0.26458333)"
               d="m 351.75287,124.19925 c -7.3288,-1.3047 -26.73529,8.46677 -26.73529,8.46677 4.62224,2.48701 8.74063,5.42682 12.2168,8.94531 L 359.10639,126.293 c -0.85797,-0.64226 -5.34677,-2.97879 -7.35352,-2.09375 z"
               style="opacity:1;fill:#000000;fill-opacity:1;stroke:none;stroke-width:0.80249101;stroke-linejoin:round;stroke-miterlimit:4;stroke-dasharray:none;stroke-opacity:1" />
          </g>
          <ellipse
             ry="17.018116"
             rx="14.2056"
             style="opacity:1;fill:#ffffff;fill-opacity:1;stroke:#000000;stroke-width:0.24963596;stroke-linejoin:round;stroke-miterlimit:4;stroke-dasharray:none;stroke-opacity:1"
             id="circle1013"
             cx="109.73893"
             cy="210.6992" />
          <rect
             transform="rotate(-39.307647)"
             ry="0.64781016"
             y="213.3685"
             x="-45.162895"
             height="4.9425402"
             width="1.7651929"
             id="rect1061"
             style="opacity:1;fill:#000000;fill-opacity:1;stroke:none;stroke-width:0.24963596;stroke-linejoin:round;stroke-miterlimit:4;stroke-dasharray:none;stroke-opacity:1" />
          <path
             inkscape:connector-curvature="0"
             id="path1074"
             d="m 96.905464,212.81138 a 3.8693575,4.0565842 0 0 0 -1.222828,0.21307 14.205599,17.018116 0 0 0 2.565597,7.6451 3.8693575,4.0565842 0 0 0 2.526587,-3.80158 3.8693575,4.0565842 0 0 0 -3.869356,-4.05659 z"
             style="opacity:1;fill:#000000;fill-opacity:0.9905213;stroke:none;stroke-width:0.24963596;stroke-linejoin:round;stroke-miterlimit:4;stroke-dasharray:none;stroke-opacity:1" />
          <ellipse
             ry="9.1249228"
             rx="12.481799"
             cy="223.31017"
             cx="109.73893"
             id="path1011"
             style="opacity:1;fill:#ffd5f6;fill-opacity:1;stroke:#000000;stroke-width:0.24963596;stroke-linejoin:round;stroke-miterlimit:4;stroke-dasharray:none;stroke-opacity:1" />
          <g
             transform="matrix(0.94350603,0,0,0.94350603,36.030406,165.22944)"
             id="g1025">
            <ellipse
               ry="3.9650886"
               rx="1.8413053"
               cy="63.24221"
               cx="73.023773"
               id="ellipse1015"
               style="opacity:1;fill:#000000;fill-opacity:1;stroke:none;stroke-width:0.0632038;stroke-linejoin:round;stroke-miterlimit:4;stroke-dasharray:none;stroke-opacity:1" />
            <ellipse
               style="opacity:1;fill:#000000;fill-opacity:1;stroke:none;stroke-width:0.0632038;stroke-linejoin:round;stroke-miterlimit:4;stroke-dasharray:none;stroke-opacity:1"
               id="ellipse1017"
               cx="83.220108"
               cy="63.24221"
               rx="1.8413053"
               ry="3.9650886" />
          </g>
          <g
             transform="matrix(0.94350603,0,0,0.94350603,35.744651,164.8764)"
             id="g1044">
            <ellipse
               ry="4.9946437"
               rx="3.1362553"
               style="opacity:1;fill:#ffffff;fill-opacity:1;stroke:#000000;stroke-width:0.06354474;stroke-linejoin:round;stroke-miterlimit:4;stroke-dasharray:none;stroke-opacity:1"
               id="ellipse1027"
               cx="72.297653"
               cy="43.561897" />
            <ellipse
               cy="44.684429"
               cx="72.531517"
               id="ellipse1029"
               style="opacity:1;fill:#000000;fill-opacity:1;stroke:none;stroke-width:0.04839504;stroke-linejoin:round;stroke-miterlimit:4;stroke-dasharray:none;stroke-opacity:1"
               rx="2.4346728"
               ry="3.7317951" />
            <ellipse
               ry="1.5335032"
               rx="1.0315078"
               style="opacity:1;fill:url(#linearGradient8996);fill-opacity:1;stroke:none;stroke-width:0.02019297;stroke-linejoin:round;stroke-miterlimit:4;stroke-dasharray:none;stroke-opacity:1"
               id="ellipse1031"
               cx="71.362213"
               cy="42.299049" />
          </g>
          <path
             inkscape:connector-curvature="0"
             id="path1080"
             d="m 121.80665,208.00589 a 4.5558564,4.7430834 0 0 0 -4.55585,4.74308 4.5558564,4.7430834 0 0 0 4.55585,4.74308 4.5558564,4.7430834 0 0 0 0.99806,-0.11994 14.205599,17.018116 0 0 0 1.13994,-6.67288 14.205599,17.018116 0 0 0 -0.13701,-2.20431 4.5558564,4.7430834 0 0 0 -2.00099,-0.48903 z"
             style="opacity:1;fill:#020202;fill-opacity:1;stroke:none;stroke-width:0.24963596;stroke-linejoin:round;stroke-miterlimit:4;stroke-dasharray:none;stroke-opacity:1" />
          <g
             transform="matrix(0.94350603,0,0,0.94350603,47.659703,164.8764)"
             id="g1052">
            <ellipse
               cy="43.561897"
               cx="72.297653"
               id="ellipse1046"
               style="opacity:1;fill:#ffffff;fill-opacity:1;stroke:#000000;stroke-width:0.06354474;stroke-linejoin:round;stroke-miterlimit:4;stroke-dasharray:none;stroke-opacity:1"
               rx="3.1362553"
               ry="4.9946437" />
            <ellipse
               ry="3.7317951"
               rx="2.4346728"
               style="opacity:1;fill:#000000;fill-opacity:1;stroke:none;stroke-width:0.04839504;stroke-linejoin:round;stroke-miterlimit:4;stroke-dasharray:none;stroke-opacity:1"
               id="ellipse1048"
               cx="72.531517"
               cy="44.684429" />
            <ellipse
               cy="42.299049"
               cx="71.362213"
               id="ellipse1050"
               style="opacity:1;fill:url(#linearGradient8998);fill-opacity:1;stroke:none;stroke-width:0.02019297;stroke-linejoin:round;stroke-miterlimit:4;stroke-dasharray:none;stroke-opacity:1"
               rx="1.0315078"
               ry="1.5335032" />
          </g>
          <rect
             style="opacity:1;fill:#000000;fill-opacity:1;stroke:none;stroke-width:0.24963596;stroke-linejoin:round;stroke-miterlimit:4;stroke-dasharray:none;stroke-opacity:1"
             id="rect1063"
             width="1.7651929"
             height="4.9425402"
             x="-214.42534"
             y="74.448868"
             ry="0.64781016"
             transform="matrix(-0.77375567,-0.63348415,-0.63348415,0.77375567,0,0)" />
          <path
             inkscape:connector-curvature="0"
             id="path1065"
             d="m 113.9909,194.46509 a 2.3388804,2.3830104 0 0 0 -0.84252,1.82887 2.3388804,2.3830104 0 0 0 2.33888,2.38276 2.3388804,2.3830104 0 0 0 2.30474,-1.99368 14.205599,17.018116 0 0 0 -3.8011,-2.21795 z"
             style="opacity:1;fill:#000000;fill-opacity:0.7298578;stroke:none;stroke-width:0.24963596;stroke-linejoin:round;stroke-miterlimit:4;stroke-dasharray:none;stroke-opacity:1" />
          <path
             sodipodi:nodetypes="ccccc"
             inkscape:connector-curvature="0"
             style="opacity:1;fill:#000000;fill-opacity:0.7298578;stroke:none;stroke-width:0.24963596;stroke-linejoin:round;stroke-miterlimit:4;stroke-dasharray:none;stroke-opacity:1"
             d="m 104.87334,194.74593 c 0.53313,0.45216 0.96658,1.27814 0.96734,1.9849 -1.4e-4,1.316 -1.04725,2.38275 -2.33888,2.38275 -1.14322,-0.001 -2.11796,-0.84453 -2.30474,-1.99367 1.16758,-0.96233 2.32399,-1.86595 3.67628,-2.37398 z"
             id="path1072" />
        </g>
        <g
           id="g1961"
           transform="translate(0.40850699,-0.39444725)">
          <g
             transform="matrix(0.35284133,0,0,0.35284133,123.99725,25.33509)"
             id="g2547">
            <rect
               ry="2.6699953"
               y="169.68581"
               x="81.542625"
               height="85.773598"
               width="56.541348"
               id="rect2543"
               style="opacity:1;fill:#000000;fill-opacity:1;stroke:none;stroke-width:1.27185464;stroke-linejoin:round;stroke-miterlimit:4;stroke-dasharray:none;stroke-opacity:1;filter:url(#filter1876)"
               transform="matrix(0.82521971,0,0,0.6077003,-40.15999,98.428024)" />
            <rect
               style="opacity:1;fill:url(#linearGradient9000);fill-opacity:1;stroke:none;stroke-width:0.90067267;stroke-linejoin:round;stroke-miterlimit:4;stroke-dasharray:none;stroke-opacity:1"
               id="rect2545"
               width="46.659035"
               height="52.124641"
               x="27.130594"
               y="201.54614"
               ry="1.6225569" />
          </g>
          <g
             transform="matrix(0.40915167,0.10963188,-0.10963188,0.40915167,99.113848,1.2635657)"
             id="g2265">
            <path
               style="fill:#000000;fill-opacity:0.21844662;fill-rule:evenodd;stroke:none;stroke-width:0.12467995px;stroke-linecap:butt;stroke-linejoin:miter;stroke-opacity:1"
               d="m 167.9045,190.86034 c -0.21598,1.66146 -0.62602,1.98116 -1.23404,2.37247 -0.009,-0.002 -0.0172,-0.003 -0.0258,-0.005 0.0342,0.15211 0.0729,0.30262 0.12403,0.45061 2.39685,0.77167 4.66056,2.06069 5.59242,3.95532 1.73772,3.53311 2.41407,8.56778 -1.8681,12.40544 -2.2511,2.01743 -5.75596,2.90251 -5.27616,5.2033 0.86779,4.16137 1.34832,7.53134 -2.22622,11.14558 -2.81438,2.84561 -9.06797,1.18167 -11.61842,3.06079 -0.76099,3.21382 0.2316,2.28022 -0.46767,4.54701 1.39198,-2.73774 -0.5135,-2.45403 1.865,-4.44107 2.45508,-2.05103 8.89284,-0.26827 11.75949,-3.16673 3.57454,-3.61424 3.09402,-6.98421 2.22622,-11.14558 -0.4798,-2.30079 3.02507,-3.18587 5.27617,-5.2033 4.28217,-3.83766 3.60582,-8.87233 1.8681,-12.40544 -0.93186,-1.89463 -3.19557,-3.18365 -5.59242,-3.95532 -0.28884,-0.83611 -0.26453,-1.72487 -0.40256,-2.81791 z"
               id="path2252"
               inkscape:connector-curvature="0" />
            <g
               id="g3664"
               transform="matrix(0.53243,0.20664786,-0.20664786,0.53243,156.61088,149.11082)">
              <path
                 id="path2141"
                 d="m 32.909691,70.690918 c -2.99743,3.326829 -6.366879,9.861039 -4.483539,16.31696 2.66174,9.124159 8.032916,12.701924 6.507473,16.861692 -3.701968,10.09497 -6.438369,10.58588 -3.78878,17.14438 1.54213,3.81722 9.323687,7.3501 9.980517,13.08774 0.807395,7.05288 1.939829,4.38426 2.251274,8.76323 0.537681,-5.35066 -2.392923,-3.6804 0.230637,-8.43069 2.708025,-4.90324 14.345668,-6.07162 17.188626,-12.61888 3.544984,-8.16406 0.62599,-13.36029 -3.426863,-19.6031 -2.24079,-3.451599 2.919299,-7.116532 5.315662,-11.835705 4.558489,-8.977075 0.264939,-16.7669 -4.80986,-21.433081 -2.72137,-2.502227 -7.233213,-3.172449 -11.634458,-2.913571 -1.001161,-1.181792 -1.524614,-2.647051 -2.442394,-4.343766 0.700038,2.848823 0.233532,3.630322 -0.511018,4.654254 -3.322927,0.495469 -6.316397,1.431597 -8.070337,2.382504 -0.657442,0.356437 -1.467662,1.036521 -2.30694,1.968033 z"
                 style="fill:url(#linearGradient8994);fill-opacity:1;fill-rule:evenodd;stroke:none;stroke-width:0.21830547px;stroke-linecap:butt;stroke-linejoin:miter;stroke-opacity:1"
                 inkscape:connector-curvature="0" />
              <g
                 transform="rotate(-0.25421,-1273.6447,-395.37865)"
                 id="g3623">
                <path
                   style="fill:#441650;fill-rule:evenodd;stroke:none;stroke-width:0.1320845px;stroke-linecap:butt;stroke-linejoin:miter;stroke-opacity:1"
                   d="m 35.493995,88.748711 c 0.531615,-1.641054 0.281907,-3.144181 2.492052,-5.081561 -0.950668,-0.0021 -1.88813,0.157887 -2.721606,1.593782 -0.44276,0.688636 0.03475,2.217232 0.229554,3.487779 z"
                   id="path2170"
                   inkscape:connector-curvature="0"
                   sodipodi:nodetypes="cccc" />
                <path
                   sodipodi:nodetypes="cccc"
                   inkscape:connector-curvature="0"
                   id="path2188"
                   d="m 54.414241,82.742358 c -0.161387,2.779998 0.483345,4.307375 -1.409909,9.778536 1.023388,-1.312469 1.992016,-2.80859 2.529513,-5.750545 0.304068,-1.470467 -0.592134,-2.714436 -1.119604,-4.027991 z"
                   style="fill:#441650;fill-rule:evenodd;stroke:none;stroke-width:0.17153859px;stroke-linecap:butt;stroke-linejoin:miter;stroke-opacity:1" />
                <path
                   sodipodi:nodetypes="cccc"
                   inkscape:connector-curvature="0"
                   id="path2192"
                   d="m 38.909381,123.3293 c -0.947594,-1.1474 -2.126473,-1.64159 -2.577217,-4.19237 -0.402767,0.71762 -0.684193,1.49889 -0.01052,2.78125 0.304946,0.64753 1.598143,0.9811 2.587738,1.41112 z"
                   style="fill:#441650;fill-rule:evenodd;stroke:none;stroke-width:0.11297449px;stroke-linecap:butt;stroke-linejoin:miter;stroke-opacity:1" />
                <path
                   sodipodi:nodetypes="cccc"
                   inkscape:connector-curvature="0"
                   id="path2194"
                   d="m 50.67194,125.95467 c -0.579452,1.62476 -0.373884,3.13456 -2.639837,5.00637 0.950208,0.0299 1.891952,-0.10251 2.767127,-1.51337 0.46274,-0.67537 0.0302,-2.2173 -0.12729,-3.493 z"
                   style="fill:#441650;fill-rule:evenodd;stroke:none;stroke-width:0.1320845px;stroke-linecap:butt;stroke-linejoin:miter;stroke-opacity:1" />
                <path
                   style="fill:#441650;fill-rule:evenodd;stroke:none;stroke-width:0.11297449px;stroke-linecap:butt;stroke-linejoin:miter;stroke-opacity:1"
                   d="m 46.017273,107.53349 c -0.947593,-1.14741 -2.126472,-1.64159 -2.577217,-4.19237 -0.402767,0.71762 -0.684193,1.49889 -0.01052,2.78125 0.304946,0.64752 1.598142,0.9811 2.587737,1.41112 z"
                   id="path2223"
                   inkscape:connector-curvature="0"
                   sodipodi:nodetypes="cccc" />
              </g>
            </g>
          </g>
        </g>
        <g
           id="g4803"
           transform="matrix(0.7570091,0,0,0.7570091,27.088082,-50.648353)">
          <g
             style="fill:#000000;fill-opacity:0.48058256;stroke:none"
             id="g4771"
             transform="matrix(0.72757851,-0.34064367,0.34064367,0.72757851,32.264343,146.88727)">
            <path
               style="opacity:1;fill:#000000;fill-opacity:0.48058256;stroke:none;stroke-width:0.75477797;stroke-linejoin:round;stroke-miterlimit:4;stroke-dasharray:none;stroke-opacity:1"
               d="m 118.77799,92.632665 h 14.78598 c -3.15802,7.836235 -2.24306,17.764075 0,22.630385 2.06317,4.47605 -17.7698,3.92282 -14.78598,0 4.76876,-6.26948 3.26788,-14.48067 0,-22.630385 z"
               id="path4743"
               inkscape:connector-curvature="0"
               sodipodi:nodetypes="ccssc" />
            <g
               style="fill:#000000;fill-opacity:0.48058256;stroke:none"
               transform="translate(0.06614583,0.89296875)"
               id="g4751">
              <path
                 sodipodi:nodetypes="cccc"
                 inkscape:connector-curvature="0"
                 id="path4745"
                 d="m 123.73412,92.710338 -0.62721,0.165283 c 0.25333,1.953248 -0.54388,6.034139 -0.74484,8.693679 0.42845,-2.861475 0.82068,-5.608263 1.37205,-8.858997 z"
                 inkscape:transform-center-y="2.4378457"
                 inkscape:transform-center-x="0.024202296"
                 style="opacity:1;fill:#000000;fill-opacity:0.48058256;stroke:none;stroke-width:0.08973404;stroke-linejoin:round;stroke-miterlimit:4;stroke-dasharray:none;stroke-opacity:1" />
              <path
                 style="opacity:1;fill:#000000;fill-opacity:0.48058256;stroke:none;stroke-width:0.09824103;stroke-linejoin:round;stroke-miterlimit:4;stroke-dasharray:none;stroke-opacity:1"
                 inkscape:transform-center-x="-0.034450585"
                 inkscape:transform-center-y="2.0306986"
                 d="m 127.71409,92.927926 0.90248,0.137868 c -0.36484,1.626952 0.78166,5.026519 1.07042,7.241926 -0.61606,-2.38369 -1.18002,-4.671846 -1.97291,-7.379818 z"
                 id="path4747"
                 inkscape:connector-curvature="0"
                 sodipodi:nodetypes="cccc" />
              <path
                 style="opacity:1;fill:#000000;fill-opacity:0.48058256;stroke:none;stroke-width:0.10531993;stroke-linejoin:round;stroke-miterlimit:4;stroke-dasharray:none;stroke-opacity:1"
                 inkscape:transform-center-x="0.23555815"
                 inkscape:transform-center-y="2.4182939"
                 d="m 126.05649,93.441821 -0.81074,0.325334 c 0.71145,1.867223 0.41675,6.110591 0.65246,8.793835 0.0314,-2.941728 0.0359,-5.760637 0.15829,-9.119208 z"
                 id="path4749"
                 inkscape:connector-curvature="0"
                 sodipodi:nodetypes="cccc" />
            </g>
            <g
               style="fill:#000000;fill-opacity:0.48058256;stroke:none"
               id="g4767">
              <path
                 sodipodi:nodetypes="ccccccccccccccccc"
                 inkscape:connector-curvature="0"
                 id="path4753"
                 d="m 125.19934,93.728074 c 0.70661,-0.480229 1.15013,-1.31392 1.0855,-2.443407 1.61035,-0.58962 2.45255,-2.586496 0.66336,-5.569735 -0.31665,-0.278405 -0.69393,-0.491505 -1.10455,-0.638447 0.53402,-1.640211 -1.65216,-3.388465 -6.46852,-2.770995 -0.89343,-0.806453 -2.38691,-1.15777 -3.81193,-0.79813 -1.59599,0.402807 -2.59005,1.566771 -2.4907,2.772358 -0.0415,0.03279 -0.0824,0.0659 -0.12295,0.09937 -0.0264,-0.01213 -0.0525,-0.02454 -0.0796,-0.03612 -2.71628,-1.076515 -4.71572,2.789546 -2.98092,5.391626 -1.73891,1.293103 1.04374,2.669605 1.22879,3.42605 0.31626,1.292862 1.89102,2.145608 3.51727,1.904543 0.35224,-0.06109 0.62691,-0.174086 0.83313,-0.326767 0.89925,1.354353 2.98409,1.913257 4.67201,1.247527 1.70927,-0.348129 2.79918,-1.030977 3.28096,-1.787538 0.66408,0.02751 1.28503,-0.135231 1.77815,-0.470346 z"
                 style="opacity:1;fill:#000000;fill-opacity:0.48058256;stroke:none;stroke-width:0.62066793;stroke-linejoin:round;stroke-miterlimit:4;stroke-dasharray:none;stroke-opacity:1" />
              <path
                 sodipodi:nodetypes="ccccccccccccccccc"
                 inkscape:connector-curvature="0"
                 id="path4755"
                 d="m 132.3682,85.915836 c 0.37532,-0.477296 0.4961,-1.138915 0.20866,-1.893434 0.96425,-0.744336 1.10433,-2.282168 -0.75177,-3.929999 -0.27467,-0.121875 -0.57633,-0.186401 -0.88632,-0.198824 0.008,-1.229528 -1.85065,-1.952685 -4.98177,-0.505981 -0.77948,-0.358105 -1.86746,-0.278716 -2.75571,0.269684 -0.99479,0.614201 -1.41744,1.617857 -1.09008,2.416725 -0.021,0.03118 -0.0417,0.06239 -0.0619,0.09382 -0.0205,-0.0024 -0.0409,-0.0055 -0.0618,-0.0076 -2.07317,-0.15323 -2.59439,2.902731 -0.85737,4.302888 -0.89963,1.250257 1.28323,1.59339 1.57181,2.068487 0.4932,0.812015 1.74444,1.056369 2.79464,0.545726 0.22556,-0.116621 0.38734,-0.252049 0.49418,-0.399868 0.90159,0.72956 2.43516,0.665307 3.43554,-0.14733 1.08339,-0.601166 1.67479,-1.297983 1.83813,-1.915302 0.45602,-0.12285 0.84177,-0.365918 1.10369,-0.698988 z"
                 style="opacity:1;fill:#000000;fill-opacity:0.48058256;stroke:none;stroke-width:0.4419378;stroke-linejoin:round;stroke-miterlimit:4;stroke-dasharray:none;stroke-opacity:1" />
              <path
                 style="opacity:1;fill:#000000;fill-opacity:0.48058256;stroke:none;stroke-width:0.62066793;stroke-linejoin:round;stroke-miterlimit:4;stroke-dasharray:none;stroke-opacity:1"
                 d="m 132.38843,84.808273 c 0.70662,-0.480228 1.15013,-1.313916 1.0855,-2.443406 1.61035,-0.589617 2.45256,-2.586493 0.66337,-5.569732 -0.31666,-0.278405 -0.69394,-0.491505 -1.10455,-0.638447 0.53402,-1.640211 -1.65217,-3.388465 -6.46853,-2.770995 -0.89343,-0.806453 -2.38691,-1.157774 -3.81193,-0.798134 -1.59599,0.402811 -2.59005,1.566775 -2.4907,2.772362 -0.0414,0.03279 -0.0824,0.0659 -0.12295,0.09937 -0.0264,-0.01213 -0.0525,-0.02454 -0.0796,-0.03612 -2.71628,-1.076511 -4.71572,2.789547 -2.98092,5.391626 -1.73891,1.293104 1.04375,2.669609 1.22879,3.42605 0.31626,1.292862 1.89102,2.145608 3.51727,1.904543 0.35224,-0.06109 0.62691,-0.174082 0.83313,-0.326763 0.89925,1.354353 2.98409,1.913254 4.67201,1.247523 1.70926,-0.348125 2.79918,-1.030973 3.28096,-1.787534 0.66409,0.02751 1.28504,-0.135231 1.77815,-0.470349 z"
                 id="path4757"
                 inkscape:connector-curvature="0"
                 sodipodi:nodetypes="ccccccccccccccccc" />
              <path
                 sodipodi:nodetypes="ccccccccccccccccc"
                 inkscape:connector-curvature="0"
                 id="path4759"
                 d="m 131.70254,85.782702 c 0.37532,-0.477296 0.49611,-1.138912 0.20867,-1.893431 0.96424,-0.744339 1.10432,-2.282167 -0.75178,-3.930002 -0.27466,-0.121875 -0.57632,-0.186397 -0.88632,-0.198821 0.008,-1.229528 -1.85064,-1.952688 -4.98177,-0.50598 -0.77947,-0.358109 -1.86746,-0.278717 -2.7557,0.26968 -0.9948,0.614201 -1.41745,1.617856 -1.09008,2.416724 -0.0211,0.03118 -0.0417,0.06239 -0.0619,0.09382 -0.0205,-0.0024 -0.0409,-0.0055 -0.0618,-0.0077 -2.07316,-0.15323 -2.59438,2.902735 -0.85737,4.302888 -0.89963,1.250257 1.28323,1.593394 1.57181,2.068491 0.4932,0.812015 1.74444,1.056369 2.79464,0.545725 0.22556,-0.11662 0.38734,-0.252051 0.49418,-0.399867 0.9016,0.72956 2.43516,0.665304 3.43555,-0.147333 1.08338,-0.601166 1.67478,-1.297983 1.83812,-1.915303 0.45602,-0.122846 0.84178,-0.365914 1.10369,-0.698984 z"
                 style="opacity:1;fill:#000000;fill-opacity:0.48058256;stroke:none;stroke-width:0.4419378;stroke-linejoin:round;stroke-miterlimit:4;stroke-dasharray:none;stroke-opacity:1" />
              <path
                 sodipodi:nodetypes="ccccccccccccccccc"
                 inkscape:connector-curvature="0"
                 id="path4761"
                 d="m 136.13548,79.9196 c -0.76303,-0.384326 -1.7072,-0.36698 -2.66305,0.238227 -1.29768,-1.121108 -3.45223,-0.887157 -5.19058,2.125994 -0.0895,0.412025 -0.0925,0.845321 -0.0214,1.275611 -1.69308,0.330053 -2.15911,3.090239 0.72043,7.00009 -0.27086,1.172703 0.14761,2.648771 1.15424,3.719622 1.12742,1.199309 2.62772,1.502718 3.63322,0.830192 0.0488,0.02027 0.0977,0.04004 0.14659,0.0592 0.002,0.02898 0.004,0.05782 0.007,0.08711 0.37865,2.897187 4.72918,2.766675 6.1608,-0.01374 1.97502,0.891722 1.82634,-2.209221 2.39762,-2.738444 0.97641,-0.90452 0.95675,-2.695228 -0.044,-3.999566 -0.22451,-0.278206 -0.45672,-0.46339 -0.69036,-0.569468 0.74694,-1.443953 0.22262,-3.537763 -1.17926,-4.689695 -1.13467,-1.324896 -2.26102,-1.945823 -3.15635,-1.999383 -0.29857,-0.593818 -0.74248,-1.057508 -1.27494,-1.325727 z"
                 style="opacity:1;fill:#000000;fill-opacity:0.48058256;stroke:none;stroke-width:0.62066793;stroke-linejoin:round;stroke-miterlimit:4;stroke-dasharray:none;stroke-opacity:1" />
              <path
                 style="opacity:1;fill:#000000;fill-opacity:0.48058256;stroke:none;stroke-width:0.4419378;stroke-linejoin:round;stroke-miterlimit:4;stroke-dasharray:none;stroke-opacity:1"
                 d="m 128.64052,92.173005 c 0.37533,-0.477292 0.49611,-1.138911 0.20867,-1.89343 0.96424,-0.744336 1.10433,-2.282168 -0.75178,-3.930003 -0.27466,-0.121871 -0.57632,-0.186397 -0.88631,-0.19882 0.008,-1.229528 -1.85066,-1.952685 -4.98178,-0.505981 -0.77947,-0.358105 -1.86746,-0.278716 -2.7557,0.269684 -0.9948,0.614201 -1.41745,1.617857 -1.09009,2.416725 -0.021,0.03118 -0.0417,0.06239 -0.0619,0.09382 -0.0205,-0.0024 -0.0409,-0.0055 -0.0618,-0.0076 -2.07317,-0.15323 -2.59439,2.902731 -0.85738,4.302888 -0.89963,1.250257 1.28323,1.59339 1.57181,2.068487 0.4932,0.812015 1.74444,1.056369 2.79464,0.545726 0.22556,-0.116621 0.38735,-0.252048 0.49418,-0.399868 0.9016,0.729561 2.43516,0.665304 3.43555,-0.14733 1.08338,-0.601166 1.67478,-1.297983 1.83812,-1.915302 0.45603,-0.12285 0.84178,-0.365918 1.10369,-0.698988 z"
                 id="path4763"
                 inkscape:connector-curvature="0"
                 sodipodi:nodetypes="ccccccccccccccccc" />
              <path
                 style="opacity:1;fill:#000000;fill-opacity:0.48058256;stroke:none;stroke-width:0.4419378;stroke-linejoin:round;stroke-miterlimit:4;stroke-dasharray:none;stroke-opacity:1"
                 d="m 136.76153,93.238054 c 0.37532,-0.477292 0.4961,-1.138911 0.20867,-1.89343 0.96424,-0.744336 1.10432,-2.282168 -0.75178,-3.930003 -0.27466,-0.121871 -0.57632,-0.186397 -0.88632,-0.19882 0.008,-1.229528 -1.85065,-1.952685 -4.98177,-0.505981 -0.77947,-0.358108 -1.86746,-0.278716 -2.7557,0.269684 -0.9948,0.614198 -1.41745,1.617857 -1.09008,2.416721 -0.021,0.03118 -0.0417,0.06239 -0.0619,0.09382 -0.0204,-0.0024 -0.0409,-0.0055 -0.0618,-0.0076 -2.07317,-0.153234 -2.59439,2.902731 -0.85737,4.302884 -0.89963,1.250261 1.28323,1.593394 1.57181,2.068491 0.4932,0.812015 1.74445,1.056369 2.79464,0.545726 0.22556,-0.116621 0.38734,-0.252049 0.49418,-0.399868 0.90159,0.72956 2.43516,0.665304 3.43554,-0.147333 1.08339,-0.601163 1.67479,-1.297983 1.83813,-1.915303 0.45603,-0.122846 0.84177,-0.365914 1.10369,-0.698984 z"
                 id="path4765"
                 inkscape:connector-curvature="0"
                 sodipodi:nodetypes="ccccccccccccccccc" />
            </g>
            <path
               sodipodi:nodetypes="cscsc"
               inkscape:connector-curvature="0"
               id="path4769"
               d="m 133.44099,116.27235 c 0.0684,1.16259 -3.44007,2.21969 -7.54201,2.07758 -4.0603,-0.14067 -7.21862,-0.85419 -7.12107,-2.07758 0,-0.97951 3.28244,-1.77356 7.33154,-1.77356 4.0491,0 7.33154,0.79405 7.33154,1.77356 z"
               style="opacity:1;fill:#000000;fill-opacity:0.48058256;stroke:none;stroke-width:0.29152423;stroke-linejoin:round;stroke-miterlimit:4;stroke-dasharray:none;stroke-opacity:1" />
          </g>
          <g
             transform="matrix(0.72757851,-0.34064367,0.34064367,0.72757851,32.79351,146.3581)"
             id="g4160">
            <path
               sodipodi:nodetypes="ccssc"
               inkscape:connector-curvature="0"
               id="path1021"
               d="m 118.77799,92.632665 h 14.78598 c -3.15802,7.836235 -2.24306,17.764075 0,22.630385 2.06317,4.47605 -17.7698,3.92282 -14.78598,0 4.76876,-6.26948 3.26788,-14.48067 0,-22.630385 z"
               style="opacity:1;fill:url(#linearGradient9002);fill-opacity:1;stroke:none;stroke-width:0.75477797;stroke-linejoin:round;stroke-miterlimit:4;stroke-dasharray:none;stroke-opacity:1" />
            <g
               id="g4135"
               transform="translate(0.06614583,0.89296875)"
               style="stroke:#005500">
              <path
                 style="opacity:1;fill:#005b1e;fill-opacity:1;stroke:#005500;stroke-width:0.08973404;stroke-linejoin:round;stroke-miterlimit:4;stroke-dasharray:none;stroke-opacity:1"
                 inkscape:transform-center-x="0.024202296"
                 inkscape:transform-center-y="2.4378457"
                 d="m 123.73412,92.710338 -0.62721,0.165283 c 0.25333,1.953248 -0.54388,6.034139 -0.74484,8.693679 0.42845,-2.861475 0.82068,-5.608263 1.37205,-8.858997 z"
                 id="path1023"
                 inkscape:connector-curvature="0"
                 sodipodi:nodetypes="cccc" />
              <path
                 sodipodi:nodetypes="cccc"
                 inkscape:connector-curvature="0"
                 id="path1035"
                 d="m 127.71409,92.927926 0.90248,0.137868 c -0.36484,1.626952 0.78166,5.026519 1.07042,7.241926 -0.61606,-2.38369 -1.18002,-4.671846 -1.97291,-7.379818 z"
                 inkscape:transform-center-y="2.0306986"
                 inkscape:transform-center-x="-0.034450585"
                 style="opacity:1;fill:#005522;fill-opacity:1;stroke:#005500;stroke-width:0.09824103;stroke-linejoin:round;stroke-miterlimit:4;stroke-dasharray:none;stroke-opacity:1" />
              <path
                 sodipodi:nodetypes="cccc"
                 inkscape:connector-curvature="0"
                 id="path1037"
                 d="m 126.05649,93.441821 -0.81074,0.325334 c 0.71145,1.867223 0.41675,6.110591 0.65246,8.793835 0.0314,-2.941728 0.0359,-5.760637 0.15829,-9.119208 z"
                 inkscape:transform-center-y="2.4182939"
                 inkscape:transform-center-x="0.23555815"
                 style="opacity:1;fill:#005b1e;fill-opacity:1;stroke:#005500;stroke-width:0.10531993;stroke-linejoin:round;stroke-miterlimit:4;stroke-dasharray:none;stroke-opacity:1" />
            </g>
            <g
               id="g4144">
              <path
                 style="opacity:1;fill:#008000;fill-opacity:1;stroke:#005500;stroke-width:0.62066793;stroke-linejoin:round;stroke-miterlimit:4;stroke-dasharray:none;stroke-opacity:1"
                 d="m 125.19934,93.728074 c 0.70661,-0.480229 1.15013,-1.31392 1.0855,-2.443407 1.61035,-0.58962 2.45255,-2.586496 0.66336,-5.569735 -0.31665,-0.278405 -0.69393,-0.491505 -1.10455,-0.638447 0.53402,-1.640211 -1.65216,-3.388465 -6.46852,-2.770995 -0.89343,-0.806453 -2.38691,-1.15777 -3.81193,-0.79813 -1.59599,0.402807 -2.59005,1.566771 -2.4907,2.772358 -0.0415,0.03279 -0.0824,0.0659 -0.12295,0.09937 -0.0264,-0.01213 -0.0525,-0.02454 -0.0796,-0.03612 -2.71628,-1.076515 -4.71572,2.789546 -2.98092,5.391626 -1.73891,1.293103 1.04374,2.669605 1.22879,3.42605 0.31626,1.292862 1.89102,2.145608 3.51727,1.904543 0.35224,-0.06109 0.62691,-0.174086 0.83313,-0.326767 0.89925,1.354353 2.98409,1.913257 4.67201,1.247527 1.70927,-0.348129 2.79918,-1.030977 3.28096,-1.787538 0.66408,0.02751 1.28503,-0.135231 1.77815,-0.470346 z"
                 id="path1019"
                 inkscape:connector-curvature="0"
                 sodipodi:nodetypes="ccccccccccccccccc" />
              <path
                 style="opacity:1;fill:#008000;fill-opacity:1;stroke:#005500;stroke-width:0.4419378;stroke-linejoin:round;stroke-miterlimit:4;stroke-dasharray:none;stroke-opacity:1"
                 d="m 132.3682,85.915836 c 0.37532,-0.477296 0.4961,-1.138915 0.20866,-1.893434 0.96425,-0.744336 1.10433,-2.282168 -0.75177,-3.929999 -0.27467,-0.121875 -0.57633,-0.186401 -0.88632,-0.198824 0.008,-1.229528 -1.85065,-1.952685 -4.98177,-0.505981 -0.77948,-0.358105 -1.86746,-0.278716 -2.75571,0.269684 -0.99479,0.614201 -1.41744,1.617857 -1.09008,2.416725 -0.021,0.03118 -0.0417,0.06239 -0.0619,0.09382 -0.0205,-0.0024 -0.0409,-0.0055 -0.0618,-0.0076 -2.07317,-0.15323 -2.59439,2.902731 -0.85737,4.302888 -0.89963,1.250257 1.28323,1.59339 1.57181,2.068487 0.4932,0.812015 1.74444,1.056369 2.79464,0.545726 0.22556,-0.116621 0.38734,-0.252049 0.49418,-0.399868 0.90159,0.72956 2.43516,0.665307 3.43554,-0.14733 1.08339,-0.601166 1.67479,-1.297983 1.83813,-1.915302 0.45602,-0.12285 0.84177,-0.365918 1.10369,-0.698988 z"
                 id="path1025"
                 inkscape:connector-curvature="0"
                 sodipodi:nodetypes="ccccccccccccccccc" />
              <path
                 sodipodi:nodetypes="ccccccccccccccccc"
                 inkscape:connector-curvature="0"
                 id="path1027"
                 d="m 132.38843,84.808273 c 0.70662,-0.480228 1.15013,-1.313916 1.0855,-2.443406 1.61035,-0.589617 2.45256,-2.586493 0.66337,-5.569732 -0.31666,-0.278405 -0.69394,-0.491505 -1.10455,-0.638447 0.53402,-1.640211 -1.65217,-3.388465 -6.46853,-2.770995 -0.89343,-0.806453 -2.38691,-1.157774 -3.81193,-0.798134 -1.59599,0.402811 -2.59005,1.566775 -2.4907,2.772362 -0.0414,0.03279 -0.0824,0.0659 -0.12295,0.09937 -0.0264,-0.01213 -0.0525,-0.02454 -0.0796,-0.03612 -2.71628,-1.076511 -4.71572,2.789547 -2.98092,5.391626 -1.73891,1.293104 1.04375,2.669609 1.22879,3.42605 0.31626,1.292862 1.89102,2.145608 3.51727,1.904543 0.35224,-0.06109 0.62691,-0.174082 0.83313,-0.326763 0.89925,1.354353 2.98409,1.913254 4.67201,1.247523 1.70926,-0.348125 2.79918,-1.030973 3.28096,-1.787534 0.66409,0.02751 1.28504,-0.135231 1.77815,-0.470349 z"
                 style="opacity:1;fill:#008000;fill-opacity:1;stroke:#005500;stroke-width:0.62066793;stroke-linejoin:round;stroke-miterlimit:4;stroke-dasharray:none;stroke-opacity:1" />
              <path
                 style="opacity:1;fill:#008000;fill-opacity:1;stroke:#005500;stroke-width:0.4419378;stroke-linejoin:round;stroke-miterlimit:4;stroke-dasharray:none;stroke-opacity:1"
                 d="m 131.70254,85.782702 c 0.37532,-0.477296 0.49611,-1.138912 0.20867,-1.893431 0.96424,-0.744339 1.10432,-2.282167 -0.75178,-3.930002 -0.27466,-0.121875 -0.57632,-0.186397 -0.88632,-0.198821 0.008,-1.229528 -1.85064,-1.952688 -4.98177,-0.50598 -0.77947,-0.358109 -1.86746,-0.278717 -2.7557,0.26968 -0.9948,0.614201 -1.41745,1.617856 -1.09008,2.416724 -0.0211,0.03118 -0.0417,0.06239 -0.0619,0.09382 -0.0205,-0.0024 -0.0409,-0.0055 -0.0618,-0.0077 -2.07316,-0.15323 -2.59438,2.902735 -0.85737,4.302888 -0.89963,1.250257 1.28323,1.593394 1.57181,2.068491 0.4932,0.812015 1.74444,1.056369 2.79464,0.545725 0.22556,-0.11662 0.38734,-0.252051 0.49418,-0.399867 0.9016,0.72956 2.43516,0.665304 3.43555,-0.147333 1.08338,-0.601166 1.67478,-1.297983 1.83812,-1.915303 0.45602,-0.122846 0.84178,-0.365914 1.10369,-0.698984 z"
                 id="path1029"
                 inkscape:connector-curvature="0"
                 sodipodi:nodetypes="ccccccccccccccccc" />
              <path
                 style="opacity:1;fill:#008000;fill-opacity:1;stroke:#005500;stroke-width:0.62066793;stroke-linejoin:round;stroke-miterlimit:4;stroke-dasharray:none;stroke-opacity:1"
                 d="m 136.13548,79.9196 c -0.76303,-0.384326 -1.7072,-0.36698 -2.66305,0.238227 -1.29768,-1.121108 -3.45223,-0.887157 -5.19058,2.125994 -0.0895,0.412025 -0.0925,0.845321 -0.0214,1.275611 -1.69308,0.330053 -2.15911,3.090239 0.72043,7.00009 -0.27086,1.172703 0.14761,2.648771 1.15424,3.719622 1.12742,1.199309 2.62772,1.502718 3.63322,0.830192 0.0488,0.02027 0.0977,0.04004 0.14659,0.0592 0.002,0.02898 0.004,0.05782 0.007,0.08711 0.37865,2.897187 4.72918,2.766675 6.1608,-0.01374 1.97502,0.891722 1.82634,-2.209221 2.39762,-2.738444 0.97641,-0.90452 0.95675,-2.695228 -0.044,-3.999566 -0.22451,-0.278206 -0.45672,-0.46339 -0.69036,-0.569468 0.74694,-1.443953 0.22262,-3.537763 -1.17926,-4.689695 -1.13467,-1.324896 -2.26102,-1.945823 -3.15635,-1.999383 -0.29857,-0.593818 -0.74248,-1.057508 -1.27494,-1.325727 z"
                 id="path1031-0"
                 inkscape:connector-curvature="0"
                 sodipodi:nodetypes="ccccccccccccccccc" />
              <path
                 sodipodi:nodetypes="ccccccccccccccccc"
                 inkscape:connector-curvature="0"
                 id="path1033-7"
                 d="m 128.64052,92.173005 c 0.37533,-0.477292 0.49611,-1.138911 0.20867,-1.89343 0.96424,-0.744336 1.10433,-2.282168 -0.75178,-3.930003 -0.27466,-0.121871 -0.57632,-0.186397 -0.88631,-0.19882 0.008,-1.229528 -1.85066,-1.952685 -4.98178,-0.505981 -0.77947,-0.358105 -1.86746,-0.278716 -2.7557,0.269684 -0.9948,0.614201 -1.41745,1.617857 -1.09009,2.416725 -0.021,0.03118 -0.0417,0.06239 -0.0619,0.09382 -0.0205,-0.0024 -0.0409,-0.0055 -0.0618,-0.0076 -2.07317,-0.15323 -2.59439,2.902731 -0.85738,4.302888 -0.89963,1.250257 1.28323,1.59339 1.57181,2.068487 0.4932,0.812015 1.74444,1.056369 2.79464,0.545726 0.22556,-0.116621 0.38735,-0.252048 0.49418,-0.399868 0.9016,0.729561 2.43516,0.665304 3.43555,-0.14733 1.08338,-0.601166 1.67478,-1.297983 1.83812,-1.915302 0.45603,-0.12285 0.84178,-0.365918 1.10369,-0.698988 z"
                 style="opacity:1;fill:#008000;fill-opacity:1;stroke:#005500;stroke-width:0.4419378;stroke-linejoin:round;stroke-miterlimit:4;stroke-dasharray:none;stroke-opacity:1" />
              <path
                 sodipodi:nodetypes="ccccccccccccccccc"
                 inkscape:connector-curvature="0"
                 id="path1039"
                 d="m 136.76153,93.238054 c 0.37532,-0.477292 0.4961,-1.138911 0.20867,-1.89343 0.96424,-0.744336 1.10432,-2.282168 -0.75178,-3.930003 -0.27466,-0.121871 -0.57632,-0.186397 -0.88632,-0.19882 0.008,-1.229528 -1.85065,-1.952685 -4.98177,-0.505981 -0.77947,-0.358108 -1.86746,-0.278716 -2.7557,0.269684 -0.9948,0.614198 -1.41745,1.617857 -1.09008,2.416721 -0.021,0.03118 -0.0417,0.06239 -0.0619,0.09382 -0.0204,-0.0024 -0.0409,-0.0055 -0.0618,-0.0076 -2.07317,-0.153234 -2.59439,2.902731 -0.85737,4.302884 -0.89963,1.250261 1.28323,1.593394 1.57181,2.068491 0.4932,0.812015 1.74445,1.056369 2.79464,0.545726 0.22556,-0.116621 0.38734,-0.252049 0.49418,-0.399868 0.90159,0.72956 2.43516,0.665304 3.43554,-0.147333 1.08339,-0.601163 1.67479,-1.297983 1.83813,-1.915303 0.45603,-0.122846 0.84177,-0.365914 1.10369,-0.698984 z"
                 style="opacity:1;fill:#008000;fill-opacity:1;stroke:#005500;stroke-width:0.4419378;stroke-linejoin:round;stroke-miterlimit:4;stroke-dasharray:none;stroke-opacity:1" />
            </g>
            <path
               style="opacity:1;fill:#005700;fill-opacity:1;stroke:none;stroke-width:0.29152423;stroke-linejoin:round;stroke-miterlimit:4;stroke-dasharray:none;stroke-opacity:1"
               d="m 133.44099,116.27235 c 0.0684,1.16259 -3.44007,2.21969 -7.54201,2.07758 -4.0603,-0.14067 -7.21862,-0.85419 -7.12107,-2.07758 0,-0.97951 3.28244,-1.77356 7.33154,-1.77356 4.0491,0 7.33154,0.79405 7.33154,1.77356 z"
               id="path4129"
               inkscape:connector-curvature="0"
               sodipodi:nodetypes="cscsc" />
          </g>
        </g>
        <g
           id="g4980"
           transform="matrix(0.27804325,0,0,0.2722102,91.82316,13.573682)">
          <ellipse
             ry="28.74563"
             rx="28.142576"
             cy="235.22005"
             cx="85.870148"
             id="path4891"
             style="opacity:1;fill:url(#linearGradient9004);fill-opacity:1;stroke:none;stroke-width:2.74759603;stroke-linejoin:round;stroke-miterlimit:4;stroke-dasharray:none;stroke-opacity:1" />
          <ellipse
             ry="24.13781"
             rx="23.631424"
             cy="235.22005"
             cx="85.870148"
             id="ellipse4902"
             style="opacity:1;fill:#b54f00;fill-opacity:0.88349514;stroke:none;stroke-width:2.30716658;stroke-linejoin:round;stroke-miterlimit:4;stroke-dasharray:none;stroke-opacity:1" />
          <ellipse
             style="opacity:1;fill:#ffa70a;fill-opacity:0.88349514;stroke:none;stroke-width:2.16016841;stroke-linejoin:round;stroke-miterlimit:4;stroke-dasharray:none;stroke-opacity:1"
             id="ellipse4893"
             cx="85.870148"
             cy="235.22005"
             rx="22.125776"
             ry="22.599899" />
          <path
             id="path4932"
             transform="matrix(0.26458333,0,0,0.26458333,30.314622,145.09248)"
             d="m 157.45898,274.20898 a 83.624981,85.416942 0 0 0 -20.7246,25.23438 l 143.04101,88.12109 a 83.624981,85.416942 0 0 0 13.82227,-46.92578 83.624981,85.416942 0 0 0 -5.05664,-29.02734 z m -22.09179,28.05469 a 83.624981,85.416942 0 0 0 -8.87305,35.41016 l 80.41016,88.22461 a 83.624981,85.416942 0 0 0 3.07031,0.1582 83.624981,85.416942 0 0 0 67.51953,-35.17578 z"
             style="fill:#ffffff;fill-opacity:0.11650486;fill-rule:evenodd;stroke:none;stroke-width:0.99999994px;stroke-linecap:butt;stroke-linejoin:miter;stroke-opacity:1"
             inkscape:connector-curvature="0" />
          <g
             id="g4969">
            <text
               id="text4963"
               y="246.1002"
               x="74.472992"
               style="font-style:normal;font-weight:normal;font-size:33.78299332px;line-height:125%;font-family:sans-serif;letter-spacing:0px;word-spacing:0px;fill:#000000;fill-opacity:1;stroke:none;stroke-width:0.84457487px;stroke-linecap:butt;stroke-linejoin:miter;stroke-opacity:1"
               xml:space="preserve"><tspan
                 style="font-style:normal;font-variant:normal;font-weight:bold;font-stretch:normal;font-family:sans-serif;-inkscape-font-specification:'sans-serif Bold';fill:#000000;fill-opacity:1;stroke-width:0.84457487px"
                 y="246.1002"
                 x="74.472992"
                 id="tspan4961"
                 sodipodi:role="line">$</tspan></text>
            <text
               xml:space="preserve"
               style="font-style:normal;font-weight:normal;font-size:33.78299332px;line-height:125%;font-family:sans-serif;letter-spacing:0px;word-spacing:0px;fill:url(#linearGradient9006);fill-opacity:1;stroke:none;stroke-width:0.84457487px;stroke-linecap:butt;stroke-linejoin:miter;stroke-opacity:1"
               x="73.943825"
               y="245.57104"
               id="text4945"><tspan
                 sodipodi:role="line"
                 id="tspan4943"
                 x="73.943825"
                 y="245.57104"
                 style="font-style:normal;font-variant:normal;font-weight:bold;font-stretch:normal;font-family:sans-serif;-inkscape-font-specification:'sans-serif Bold';fill:url(#linearGradient9006);fill-opacity:1;stroke-width:0.84457487px">$</tspan></text>
          </g>
        </g>
        <g
           id="g5614"
           transform="matrix(0.85574114,0,0,0.85574114,31.275297,-91.669573)">
          <ellipse
             ry="7.9848971"
             rx="7.8173823"
             cy="216.16971"
             cx="90.515907"
             id="ellipse5595"
             style="opacity:1;fill:#001900;fill-opacity:1;stroke:none;stroke-width:0.76322114;stroke-linejoin:round;stroke-miterlimit:4;stroke-dasharray:none;stroke-opacity:1" />
          <ellipse
             style="opacity:1;fill:#008000;fill-opacity:1;stroke:none;stroke-width:0.76322114;stroke-linejoin:round;stroke-miterlimit:4;stroke-dasharray:none;stroke-opacity:1"
             id="ellipse5507"
             cx="90.515907"
             cy="216.44344"
             rx="7.8173823"
             ry="7.9848971" />
          <ellipse
             ry="5.9896712"
             rx="5.8640141"
             cy="216.44344"
             cx="90.515907"
             id="ellipse5540"
             style="opacity:1;fill:#002b11;fill-opacity:1;stroke:none;stroke-width:0.57251126;stroke-linejoin:round;stroke-miterlimit:4;stroke-dasharray:none;stroke-opacity:1" />
          <ellipse
             style="opacity:1;fill:#ffffff;fill-opacity:1;stroke:none;stroke-width:0.52315581;stroke-linejoin:round;stroke-miterlimit:4;stroke-dasharray:none;stroke-opacity:1"
             id="ellipse5547"
             cx="90.515907"
             cy="216.44344"
             rx="5.3584847"
             ry="5.473309" />
          <path
             id="rect5549"
             transform="matrix(0.26458333,0,0,0.26458333,30.314622,145.09248)"
             d="m 227.5332,239.49414 a 29.546012,30.179139 0 0 0 -4.14062,0.33008 v 7.625 a 22.163203,22.638127 0 0 1 4.14062,-0.41406 22.163203,22.638127 0 0 1 4.14063,0.41015 v -7.61719 a 29.546012,30.179139 0 0 0 -4.14063,-0.33398 z m 11.27735,2.29883 -3.8086,6.5957 a 22.163203,22.638127 0 0 1 7.10743,4.25391 l 3.79296,-6.56836 a 29.546012,30.179139 0 0 0 -7.09179,-4.28125 z m -22.54883,0.01 a 29.546012,30.179139 0 0 0 -7.11133,4.24415 l 3.8125,6.60546 a 22.163203,22.638127 0 0 1 7.09766,-4.26757 z m 34.68945,9.50391 -6.51562,3.76172 a 22.163203,22.638127 0 0 1 4.02539,7.23633 l 6.52344,-3.76563 a 29.546012,30.179139 0 0 0 -4.03321,-7.23242 z m -46.82422,0.008 a 29.546012,30.179139 0 0 0 -4.0332,7.23243 l 6.50781,3.75781 a 22.163203,22.638127 0 0 1 4.00977,-7.24805 z m -5.8164,14.15235 a 29.546012,30.179139 0 0 0 -0.32422,4.20703 29.546012,30.179139 0 0 0 0.30469,4.07422 h 7.45117 a 22.163203,22.638127 0 0 1 -0.37305,-4.07422 22.163203,22.638127 0 0 1 0.39844,-4.20703 z m 50.98437,0 a 22.163203,22.638127 0 0 1 0.40039,4.20703 22.163203,22.638127 0 0 1 -0.3789,4.07422 h 7.45703 a 29.546012,30.179139 0 0 0 0.30468,-4.07422 29.546012,30.179139 0 0 0 -0.32031,-4.20703 z m -42.72656,11.46289 -6.5332,3.77148 a 29.546012,30.179139 0 0 0 4.01367,7.24414 l 6.50586,-3.75586 a 22.163203,22.638127 0 0 1 -3.98633,-7.25976 z m 41.93359,0.002 a 22.163203,22.638127 0 0 1 -3.97461,7.26758 l 6.47852,3.74023 a 29.546012,30.179139 0 0 0 4.00391,-7.25 z m -6.34961,9.7168 a 22.163203,22.638127 0 0 1 -7.08398,4.29297 l 3.79492,6.57226 a 29.546012,30.179139 0 0 0 7.10156,-4.26172 z m -29.24609,0.01 -3.79492,6.57422 a 29.546012,30.179139 0 0 0 7.08008,4.29883 L 220,290.93359 a 22.163203,22.638127 0 0 1 -7.09375,-4.27539 z m 18.76758,5.23828 a 22.163203,22.638127 0 0 1 -4.14063,0.41407 22.163203,22.638127 0 0 1 -4.14062,-0.41016 v 7.61719 a 29.546012,30.179139 0 0 0 4.14062,0.33398 29.546012,30.179139 0 0 0 4.14063,-0.33008 z"
             style="opacity:1;fill:url(#radialGradient5589);fill-opacity:1;stroke:none;stroke-width:4.8838625;stroke-linejoin:round;stroke-miterlimit:4;stroke-dasharray:none;stroke-opacity:1"
             inkscape:connector-curvature="0" />
          <path
             id="ellipse5597"
             transform="matrix(0.26458333,0,0,0.26458333,30.314622,145.09248)"
             d="m 227.5332,250.10742 a 19.155117,19.565583 0 0 0 -19.15625,19.56641 19.155117,19.565583 0 0 0 19.15625,19.56445 19.155117,19.565583 0 0 0 19.1543,-19.56445 19.155117,19.565583 0 0 0 -19.1543,-19.56641 z m 0,1.3086 a 17.87479,18.257821 0 0 1 17.87305,18.25781 17.87479,18.257821 0 0 1 -17.87305,18.25781 17.87479,18.257821 0 0 1 -17.875,-18.25781 17.87479,18.257821 0 0 1 17.875,-18.25781 z"
             style="opacity:1;fill:#008000;fill-opacity:1;stroke:none;stroke-width:1.870139;stroke-linejoin:round;stroke-miterlimit:4;stroke-dasharray:none;stroke-opacity:1"
             inkscape:connector-curvature="0" />
          <text
             id="text5604"
             y="217.89046"
             x="87.692696"
             style="font-style:normal;font-variant:normal;font-weight:bold;font-stretch:normal;font-size:3.97520256px;line-height:125%;font-family:sans-serif;-inkscape-font-specification:'sans-serif Bold';letter-spacing:0px;word-spacing:0px;fill:#008000;fill-opacity:1;stroke:none;stroke-width:0.09938006px;stroke-linecap:butt;stroke-linejoin:miter;stroke-opacity:1"
             xml:space="preserve"><tspan
               style="font-style:normal;font-variant:normal;font-weight:bold;font-stretch:normal;font-family:sans-serif;-inkscape-font-specification:'sans-serif Bold';fill:#008000;fill-opacity:1;stroke-width:0.09938006px"
               y="217.89046"
               x="87.692696"
               id="tspan5602"
               sodipodi:role="line">50</tspan></text>
        </g>
        <g
           id="g5652"
           transform="matrix(1.425537,0,0,1.425537,13.321509,-220.5428)">
          <ellipse
             style="opacity:1;fill:#806600;fill-opacity:1;stroke:none;stroke-width:0.46084058;stroke-linejoin:round;stroke-miterlimit:4;stroke-dasharray:none;stroke-opacity:1"
             id="ellipse5616"
             cx="79.376572"
             cy="221.21664"
             rx="4.7202139"
             ry="4.8213611" />
          <ellipse
             ry="4.8213611"
             rx="4.7202139"
             cy="221.38191"
             cx="79.376572"
             id="ellipse5618"
             style="opacity:1;fill:#ffcc00;fill-opacity:1;stroke:none;stroke-width:0.46084058;stroke-linejoin:round;stroke-miterlimit:4;stroke-dasharray:none;stroke-opacity:1" />
          <ellipse
             style="opacity:1;fill:#806600;fill-opacity:1;stroke:none;stroke-width:0.34568805;stroke-linejoin:round;stroke-miterlimit:4;stroke-dasharray:none;stroke-opacity:1"
             id="ellipse5620"
             cx="79.376572"
             cy="221.38191"
             rx="3.5407507"
             ry="3.6166236" />
          <ellipse
             ry="3.3048389"
             rx="3.235507"
             cy="221.38191"
             cx="79.376572"
             id="ellipse5622"
             style="opacity:1;fill:#ffffff;fill-opacity:1;stroke:none;stroke-width:0.31588674;stroke-linejoin:round;stroke-miterlimit:4;stroke-dasharray:none;stroke-opacity:1" />
          <path
             inkscape:connector-curvature="0"
             style="opacity:1;fill:url(#radialGradient5634);fill-opacity:1;stroke:none;stroke-width:0.78023642;stroke-linejoin:round;stroke-miterlimit:4;stroke-dasharray:none;stroke-opacity:1"
             d="m 79.376696,216.56061 a 4.7202139,4.821361 0 0 0 -0.661498,0.0527 v 1.21816 a 3.5407505,3.6166235 0 0 1 0.661498,-0.0661 3.5407505,3.6166235 0 0 1 0.661499,0.0655 v -1.21691 a 4.7202139,4.821361 0 0 0 -0.661499,-0.0534 z m 1.801648,0.36726 -0.608455,1.05371 a 3.5407505,3.6166235 0 0 1 1.135469,0.6796 l 0.605956,-1.04935 a 4.7202139,4.821361 0 0 0 -1.13297,-0.68396 z m -3.602358,0.002 a 4.7202139,4.821361 0 0 0 -1.136092,0.67803 l 0.609077,1.05528 A 3.5407505,3.6166235 0 0 1 78.18288,217.981 Z m 5.54192,1.51832 -1.040923,0.60097 a 3.5407505,3.6166235 0 0 1 0.643088,1.15606 l 1.042172,-0.60159 a 4.7202139,4.821361 0 0 0 -0.644337,-1.15544 z m -7.480547,10e-4 a 4.7202139,4.821361 0 0 0 -0.644337,1.15544 l 1.039675,0.60034 a 3.5407505,3.6166235 0 0 1 0.640594,-1.15793 z m -0.929217,2.26095 a 4.7202139,4.821361 0 0 0 -0.0518,0.67211 4.7202139,4.821361 0 0 0 0.04868,0.65089 h 1.190384 a 3.5407505,3.6166235 0 0 1 -0.0596,-0.65089 3.5407505,3.6166235 0 0 1 0.06365,-0.67211 z m 8.145164,0 a 3.5407505,3.6166235 0 0 1 0.06397,0.67211 3.5407505,3.6166235 0 0 1 -0.06053,0.65089 h 1.191321 a 4.7202139,4.821361 0 0 0 0.04867,-0.65089 4.7202139,4.821361 0 0 0 -0.05117,-0.67211 z m -6.825912,1.83129 -1.043732,0.60253 a 4.7202139,4.821361 0 0 0 0.641216,1.15731 l 1.039364,-0.60003 a 3.5407505,3.6166235 0 0 1 -0.636848,-1.15981 z m 6.699229,3.2e-4 a 3.5407505,3.6166235 0 0 1 -0.634976,1.16106 l 1.034996,0.59753 a 4.7202139,4.821361 0 0 0 0.639657,-1.15825 z m -1.014402,1.55234 a 3.5407505,3.6166235 0 0 1 -1.131722,0.68583 l 0.606269,1.04998 a 4.7202139,4.821361 0 0 0 1.134531,-0.68085 z m -4.672298,0.002 -0.60627,1.05028 a 4.7202139,4.821361 0 0 0 1.1311,0.68677 l 0.608453,-1.05414 a 3.5407505,3.6166235 0 0 1 -1.133283,-0.68303 z m 2.998272,0.83685 a 3.5407505,3.6166235 0 0 1 -0.661499,0.0661 3.5407505,3.6166235 0 0 1 -0.661498,-0.0655 v 1.21691 a 4.7202139,4.821361 0 0 0 0.661498,0.0533 4.7202139,4.821361 0 0 0 0.661499,-0.0527 z"
             id="path5624" />
          <path
             inkscape:connector-curvature="0"
             style="opacity:1;fill:#ffcc00;fill-opacity:1;stroke:none;stroke-width:0.2987698;stroke-linejoin:round;stroke-miterlimit:4;stroke-dasharray:none;stroke-opacity:1"
             d="m 79.376696,218.25617 a 3.0601845,3.1257598 0 0 0 -3.060366,3.12589 3.0601845,3.1257598 0 0 0 3.060366,3.12558 3.0601845,3.1257598 0 0 0 3.060054,-3.12558 3.0601845,3.1257598 0 0 0 -3.060054,-3.12589 z m 0,0.20906 a 2.855642,2.9168342 0 0 1 2.855364,2.91683 2.855642,2.9168342 0 0 1 -2.855364,2.91683 2.855642,2.9168342 0 0 1 -2.855676,-2.91683 2.855642,2.9168342 0 0 1 2.855676,-2.91683 z"
             id="path5626" />
          <text
             xml:space="preserve"
             style="font-style:normal;font-variant:normal;font-weight:bold;font-stretch:normal;font-size:2.40026736px;line-height:125%;font-family:sans-serif;-inkscape-font-specification:'sans-serif Bold';letter-spacing:0px;word-spacing:0px;fill:#ffcc00;fill-opacity:1;stroke:none;stroke-width:0.06000668px;stroke-linecap:butt;stroke-linejoin:miter;stroke-opacity:1"
             x="76.794647"
             y="222.25565"
             id="text5630"><tspan
               sodipodi:role="line"
               id="tspan5628"
               x="76.794647"
               y="222.25565"
               style="font-style:normal;font-variant:normal;font-weight:bold;font-stretch:normal;font-family:sans-serif;-inkscape-font-specification:'sans-serif Bold';fill:#ffcc00;fill-opacity:1;stroke-width:0.06000668px">100</tspan></text>
        </g>
        <g
           id="g5690"
           transform="matrix(1.7498529,0,0,1.7498529,-60.996711,-274.67123)">
          <ellipse
             ry="4.8213611"
             rx="4.7202139"
             cy="225.28168"
             cx="99.024261"
             id="ellipse5654"
             style="opacity:1;fill:#006680;fill-opacity:1;stroke:none;stroke-width:0.46084058;stroke-linejoin:round;stroke-miterlimit:4;stroke-dasharray:none;stroke-opacity:1" />
          <ellipse
             style="opacity:1;fill:#00aad4;fill-opacity:1;stroke:none;stroke-width:0.46084058;stroke-linejoin:round;stroke-miterlimit:4;stroke-dasharray:none;stroke-opacity:1"
             id="ellipse5656"
             cx="99.024261"
             cy="225.44695"
             rx="4.7202139"
             ry="4.8213611" />
          <ellipse
             ry="3.6166236"
             rx="3.5407507"
             cy="225.44695"
             cx="99.024261"
             id="ellipse5658"
             style="opacity:1;fill:#006680;fill-opacity:1;stroke:none;stroke-width:0.34568805;stroke-linejoin:round;stroke-miterlimit:4;stroke-dasharray:none;stroke-opacity:1" />
          <ellipse
             style="opacity:1;fill:#ffffff;fill-opacity:1;stroke:none;stroke-width:0.31588674;stroke-linejoin:round;stroke-miterlimit:4;stroke-dasharray:none;stroke-opacity:1"
             id="ellipse5660"
             cx="99.024261"
             cy="225.44695"
             rx="3.235507"
             ry="3.3048389" />
          <path
             id="path5662"
             d="m 99.024383,220.62565 a 4.7202139,4.821361 0 0 0 -0.661498,0.0527 v 1.21816 a 3.5407505,3.6166235 0 0 1 0.661498,-0.0661 3.5407505,3.6166235 0 0 1 0.661499,0.0655 V 220.679 a 4.7202139,4.821361 0 0 0 -0.661499,-0.0534 z m 1.801647,0.36726 -0.60845,1.05371 a 3.5407505,3.6166235 0 0 1 1.13546,0.6796 l 0.60596,-1.04935 a 4.7202139,4.821361 0 0 0 -1.13297,-0.68396 z m -3.602357,0.002 a 4.7202139,4.821361 0 0 0 -1.136092,0.67803 l 0.609077,1.05528 a 3.5407505,3.6166235 0 0 1 1.133909,-0.68218 z m 5.541917,1.51832 -1.04092,0.60097 a 3.5407505,3.6166235 0 0 1 0.64309,1.15606 l 1.04217,-0.60159 a 4.7202139,4.821361 0 0 0 -0.64434,-1.15544 z m -7.480544,0.001 a 4.7202139,4.821361 0 0 0 -0.644337,1.15544 l 1.039675,0.60034 a 3.5407505,3.6166235 0 0 1 0.640594,-1.15793 z m -0.929217,2.26095 a 4.7202139,4.821361 0 0 0 -0.0518,0.67211 4.7202139,4.821361 0 0 0 0.04868,0.65089 h 1.190384 a 3.5407505,3.6166235 0 0 1 -0.0596,-0.65089 3.5407505,3.6166235 0 0 1 0.06365,-0.67211 z m 8.145161,0 a 3.5407505,3.6166235 0 0 1 0.064,0.67211 3.5407505,3.6166235 0 0 1 -0.0605,0.65089 h 1.19132 a 4.7202139,4.821361 0 0 0 0.0487,-0.65089 4.7202139,4.821361 0 0 0 -0.0512,-0.67211 z m -6.825909,1.83129 -1.043732,0.60253 a 4.7202139,4.821361 0 0 0 0.641216,1.15731 l 1.039364,-0.60003 a 3.5407505,3.6166235 0 0 1 -0.636848,-1.15981 z m 6.699229,3.2e-4 a 3.5407505,3.6166235 0 0 1 -0.63498,1.16106 l 1.035,0.59753 a 4.7202139,4.821361 0 0 0 0.63966,-1.15825 z m -1.0144,1.55234 a 3.5407505,3.6166235 0 0 1 -1.13172,0.68583 l 0.60627,1.04998 a 4.7202139,4.821361 0 0 0 1.13453,-0.68085 z m -4.6723,0.002 -0.60627,1.05028 a 4.7202139,4.821361 0 0 0 1.1311,0.68677 l 0.608453,-1.05414 a 3.5407505,3.6166235 0 0 1 -1.133283,-0.68303 z m 2.998272,0.83685 a 3.5407505,3.6166235 0 0 1 -0.661499,0.0661 3.5407505,3.6166235 0 0 1 -0.661498,-0.0655 v 1.21691 a 4.7202139,4.821361 0 0 0 0.661498,0.0533 4.7202139,4.821361 0 0 0 0.661499,-0.0527 z"
             style="opacity:1;fill:url(#radialGradient5672);fill-opacity:1;stroke:none;stroke-width:0.78023642;stroke-linejoin:round;stroke-miterlimit:4;stroke-dasharray:none;stroke-opacity:1"
             inkscape:connector-curvature="0" />
          <path
             id="path5664"
             d="m 99.024383,222.32121 a 3.0601845,3.1257598 0 0 0 -3.060366,3.12589 3.0601845,3.1257598 0 0 0 3.060366,3.12558 3.0601845,3.1257598 0 0 0 3.060057,-3.12558 3.0601845,3.1257598 0 0 0 -3.060057,-3.12589 z m 0,0.20906 a 2.855642,2.9168342 0 0 1 2.855367,2.91683 2.855642,2.9168342 0 0 1 -2.855367,2.91683 2.855642,2.9168342 0 0 1 -2.855676,-2.91683 2.855642,2.9168342 0 0 1 2.855676,-2.91683 z"
             style="opacity:1;fill:#00aad4;fill-opacity:1;stroke:none;stroke-width:0.2987698;stroke-linejoin:round;stroke-miterlimit:4;stroke-dasharray:none;stroke-opacity:1"
             inkscape:connector-curvature="0" />
          <text
             id="text5668"
             y="226.32068"
             x="96.442337"
             style="font-style:normal;font-variant:normal;font-weight:bold;font-stretch:normal;font-size:2.40026736px;line-height:125%;font-family:sans-serif;-inkscape-font-specification:'sans-serif Bold';letter-spacing:0px;word-spacing:0px;fill:#00aad4;fill-opacity:1;stroke:none;stroke-width:0.06000668px;stroke-linecap:butt;stroke-linejoin:miter;stroke-opacity:1"
             xml:space="preserve"><tspan
               style="font-style:normal;font-variant:normal;font-weight:bold;font-stretch:normal;font-family:sans-serif;-inkscape-font-specification:'sans-serif Bold';fill:#00aad4;fill-opacity:1;stroke-width:0.06000668px"
               y="226.32068"
               x="96.442337"
               id="tspan5666"
               sodipodi:role="line">200</tspan></text>
        </g>
        <g
           id="g5740"
           transform="matrix(1.9535549,0,0,1.9535549,-99.362988,-338.76285)">
          <ellipse
             style="opacity:1;fill:#800000;fill-opacity:1;stroke:none;stroke-width:0.46084058;stroke-linejoin:round;stroke-miterlimit:4;stroke-dasharray:none;stroke-opacity:1"
             id="ellipse5692"
             cx="98.476753"
             cy="226.65045"
             rx="4.7202139"
             ry="4.8213611" />
          <ellipse
             ry="4.8213611"
             rx="4.7202139"
             cy="226.81572"
             cx="98.476753"
             id="ellipse5694"
             style="opacity:1;fill:#ff0000;fill-opacity:1;stroke:none;stroke-width:0.46084058;stroke-linejoin:round;stroke-miterlimit:4;stroke-dasharray:none;stroke-opacity:1" />
          <ellipse
             style="opacity:1;fill:#800000;fill-opacity:1;stroke:none;stroke-width:0.34568805;stroke-linejoin:round;stroke-miterlimit:4;stroke-dasharray:none;stroke-opacity:1"
             id="ellipse5696"
             cx="98.476753"
             cy="226.81572"
             rx="3.5407507"
             ry="3.6166236" />
          <ellipse
             ry="3.3048389"
             rx="3.235507"
             cy="226.81572"
             cx="98.476753"
             id="ellipse5698"
             style="opacity:1;fill:#ffffff;fill-opacity:1;stroke:none;stroke-width:0.31588674;stroke-linejoin:round;stroke-miterlimit:4;stroke-dasharray:none;stroke-opacity:1" />
          <path
             inkscape:connector-curvature="0"
             style="opacity:1;fill:url(#radialGradient5710);fill-opacity:1;stroke:none;stroke-width:0.78023642;stroke-linejoin:round;stroke-miterlimit:4;stroke-dasharray:none;stroke-opacity:1"
             d="m 98.476874,221.99442 a 4.7202139,4.821361 0 0 0 -0.661498,0.0527 v 1.21816 a 3.5407505,3.6166235 0 0 1 0.661498,-0.0661 3.5407505,3.6166235 0 0 1 0.661499,0.0655 v -1.21691 a 4.7202139,4.821361 0 0 0 -0.661499,-0.0534 z m 1.801646,0.36726 -0.608449,1.05371 a 3.5407505,3.6166235 0 0 1 1.135459,0.6796 l 0.60596,-1.04935 a 4.7202139,4.821361 0 0 0 -1.13297,-0.68396 z m -3.602356,0.002 a 4.7202139,4.821361 0 0 0 -1.136092,0.67803 l 0.609077,1.05528 a 3.5407505,3.6166235 0 0 1 1.133909,-0.68218 z m 5.541916,1.51832 -1.04092,0.60097 a 3.5407505,3.6166235 0 0 1 0.64309,1.15606 l 1.04217,-0.60159 a 4.7202139,4.821361 0 0 0 -0.64434,-1.15544 z m -7.480543,0.001 a 4.7202139,4.821361 0 0 0 -0.644337,1.15544 l 1.039675,0.60034 a 3.5407505,3.6166235 0 0 1 0.640594,-1.15793 z m -0.929217,2.26095 a 4.7202139,4.821361 0 0 0 -0.0518,0.67211 4.7202139,4.821361 0 0 0 0.04868,0.65089 h 1.190384 a 3.5407505,3.6166235 0 0 1 -0.0596,-0.65089 3.5407505,3.6166235 0 0 1 0.06365,-0.67211 z m 8.14516,0 a 3.5407505,3.6166235 0 0 1 0.064,0.67211 3.5407505,3.6166235 0 0 1 -0.0605,0.65089 h 1.19132 a 4.7202139,4.821361 0 0 0 0.0487,-0.65089 4.7202139,4.821361 0 0 0 -0.0512,-0.67211 z m -6.825908,1.83129 -1.043732,0.60253 a 4.7202139,4.821361 0 0 0 0.641216,1.15731 l 1.039364,-0.60003 a 3.5407505,3.6166235 0 0 1 -0.636848,-1.15981 z m 6.699228,3.2e-4 a 3.5407505,3.6166235 0 0 1 -0.63498,1.16106 l 1.035,0.59753 a 4.7202139,4.821361 0 0 0 0.63966,-1.15825 z m -1.0144,1.55234 a 3.5407505,3.6166235 0 0 1 -1.131719,0.68583 l 0.606269,1.04998 a 4.7202139,4.821361 0 0 0 1.13453,-0.68085 z m -4.672299,0.002 -0.60627,1.05028 a 4.7202139,4.821361 0 0 0 1.1311,0.68677 l 0.608453,-1.05414 a 3.5407505,3.6166235 0 0 1 -1.133283,-0.68303 z m 2.998272,0.83685 a 3.5407505,3.6166235 0 0 1 -0.661499,0.0661 3.5407505,3.6166235 0 0 1 -0.661498,-0.0655 v 1.21691 a 4.7202139,4.821361 0 0 0 0.661498,0.0533 4.7202139,4.821361 0 0 0 0.661499,-0.0527 z"
             id="path5700" />
          <path
             inkscape:connector-curvature="0"
             style="opacity:1;fill:#ff0000;fill-opacity:1;stroke:none;stroke-width:0.2987698;stroke-linejoin:round;stroke-miterlimit:4;stroke-dasharray:none;stroke-opacity:1"
             d="m 98.476874,223.68998 a 3.0601845,3.1257598 0 0 0 -3.060366,3.12589 3.0601845,3.1257598 0 0 0 3.060366,3.12558 3.0601845,3.1257598 0 0 0 3.060056,-3.12558 3.0601845,3.1257598 0 0 0 -3.060056,-3.12589 z m 0,0.20906 a 2.855642,2.9168342 0 0 1 2.855366,2.91683 2.855642,2.9168342 0 0 1 -2.855366,2.91683 2.855642,2.9168342 0 0 1 -2.855676,-2.91683 2.855642,2.9168342 0 0 1 2.855676,-2.91683 z"
             id="path5702" />
          <text
             xml:space="preserve"
             style="font-style:normal;font-variant:normal;font-weight:bold;font-stretch:normal;font-size:2.40026736px;line-height:125%;font-family:sans-serif;-inkscape-font-specification:'sans-serif Bold';letter-spacing:0px;word-spacing:0px;fill:#ff0000;fill-opacity:1;stroke:none;stroke-width:0.06000668px;stroke-linecap:butt;stroke-linejoin:miter;stroke-opacity:1"
             x="95.894829"
             y="227.68945"
             id="text5706"><tspan
               sodipodi:role="line"
               id="tspan5704"
               x="95.894829"
               y="227.68945"
               style="font-style:normal;font-variant:normal;font-weight:bold;font-stretch:normal;font-family:sans-serif;-inkscape-font-specification:'sans-serif Bold';fill:#ff0000;fill-opacity:1;stroke-width:0.06000668px">500</tspan></text>
        </g>
        <g
           id="g5778"
           transform="matrix(1.1457086,0,0,1.1457086,40.035335,-139.14589)">
          <ellipse
             style="opacity:1;fill:#4d4d4d;fill-opacity:1;stroke:none;stroke-width:0.46084058;stroke-linejoin:round;stroke-miterlimit:4;stroke-dasharray:none;stroke-opacity:1"
             id="ellipse5742"
             cx="78.021561"
             cy="225.9245"
             rx="4.7202139"
             ry="4.8213611" />
          <ellipse
             ry="4.8213611"
             rx="4.7202139"
             cy="226.08978"
             cx="78.021561"
             id="ellipse5744"
             style="opacity:1;fill:#000000;fill-opacity:1;stroke:none;stroke-width:0.46084058;stroke-linejoin:round;stroke-miterlimit:4;stroke-dasharray:none;stroke-opacity:1" />
          <ellipse
             style="opacity:1;fill:#4d4d4d;fill-opacity:1;stroke:none;stroke-width:0.34568805;stroke-linejoin:round;stroke-miterlimit:4;stroke-dasharray:none;stroke-opacity:1"
             id="ellipse5746"
             cx="78.021561"
             cy="226.08978"
             rx="3.5407507"
             ry="3.6166236" />
          <ellipse
             ry="3.3048389"
             rx="3.235507"
             cy="226.08978"
             cx="78.021561"
             id="ellipse5748"
             style="opacity:1;fill:#ffffff;fill-opacity:1;stroke:none;stroke-width:0.31588674;stroke-linejoin:round;stroke-miterlimit:4;stroke-dasharray:none;stroke-opacity:1" />
          <path
             inkscape:connector-curvature="0"
             style="opacity:1;fill:url(#radialGradient5760);fill-opacity:1;stroke:none;stroke-width:0.78023642;stroke-linejoin:round;stroke-miterlimit:4;stroke-dasharray:none;stroke-opacity:1"
             d="m 78.021683,221.26848 a 4.7202139,4.821361 0 0 0 -0.661498,0.0527 v 1.21816 a 3.5407505,3.6166235 0 0 1 0.661498,-0.0661 3.5407505,3.6166235 0 0 1 0.661499,0.0655 v -1.21691 a 4.7202139,4.821361 0 0 0 -0.661499,-0.0534 z m 1.801648,0.36726 -0.608455,1.05371 a 3.5407505,3.6166235 0 0 1 1.135469,0.6796 l 0.605956,-1.04935 a 4.7202139,4.821361 0 0 0 -1.13297,-0.68396 z m -3.602358,0.002 a 4.7202139,4.821361 0 0 0 -1.136092,0.67803 l 0.609077,1.05528 a 3.5407505,3.6166235 0 0 1 1.133909,-0.68178 z m 5.54192,1.51832 -1.040923,0.60097 a 3.5407505,3.6166235 0 0 1 0.643088,1.15606 l 1.042172,-0.60159 a 4.7202139,4.821361 0 0 0 -0.644337,-1.15544 z m -7.480547,0.001 a 4.7202139,4.821361 0 0 0 -0.644337,1.15544 l 1.039675,0.60034 a 3.5407505,3.6166235 0 0 1 0.640594,-1.15793 z m -0.929217,2.26095 a 4.7202139,4.821361 0 0 0 -0.0518,0.67211 4.7202139,4.821361 0 0 0 0.04868,0.65089 h 1.190384 a 3.5407505,3.6166235 0 0 1 -0.0596,-0.65089 3.5407505,3.6166235 0 0 1 0.06365,-0.67211 z m 8.145164,0 a 3.5407505,3.6166235 0 0 1 0.06397,0.67211 3.5407505,3.6166235 0 0 1 -0.06053,0.65089 h 1.191321 a 4.7202139,4.821361 0 0 0 0.04867,-0.65089 4.7202139,4.821361 0 0 0 -0.05117,-0.67211 z m -6.825912,1.83129 -1.043732,0.60253 a 4.7202139,4.821361 0 0 0 0.641216,1.15731 l 1.039364,-0.60003 a 3.5407505,3.6166235 0 0 1 -0.636848,-1.15981 z m 6.699229,3.2e-4 a 3.5407505,3.6166235 0 0 1 -0.634976,1.16106 l 1.034996,0.59753 a 4.7202139,4.821361 0 0 0 0.639657,-1.15825 z m -1.014402,1.55234 a 3.5407505,3.6166235 0 0 1 -1.131722,0.68583 l 0.606269,1.04998 a 4.7202139,4.821361 0 0 0 1.134531,-0.68085 z m -4.672298,0.002 -0.60627,1.05028 a 4.7202139,4.821361 0 0 0 1.1311,0.68677 l 0.608453,-1.05414 a 3.5407505,3.6166235 0 0 1 -1.133283,-0.68303 z m 2.998272,0.83685 a 3.5407505,3.6166235 0 0 1 -0.661499,0.0661 3.5407505,3.6166235 0 0 1 -0.661498,-0.0655 v 1.21691 a 4.7202139,4.821361 0 0 0 0.661498,0.0533 4.7202139,4.821361 0 0 0 0.661499,-0.0527 z"
             id="path5750" />
          <path
             inkscape:connector-curvature="0"
             style="opacity:1;fill:#000000;fill-opacity:1;stroke:none;stroke-width:0.2987698;stroke-linejoin:round;stroke-miterlimit:4;stroke-dasharray:none;stroke-opacity:1"
             d="m 78.021683,222.96404 a 3.0601845,3.1257598 0 0 0 -3.060366,3.12589 3.0601845,3.1257598 0 0 0 3.060366,3.12558 3.0601845,3.1257598 0 0 0 3.060054,-3.12558 3.0601845,3.1257598 0 0 0 -3.060054,-3.12589 z m 0,0.20906 a 2.855642,2.9168342 0 0 1 2.855364,2.91683 2.855642,2.9168342 0 0 1 -2.855364,2.91683 2.855642,2.9168342 0 0 1 -2.855676,-2.91683 2.855642,2.9168342 0 0 1 2.855676,-2.91683 z"
             id="path5752" />
          <text
             xml:space="preserve"
             style="font-style:normal;font-variant:normal;font-weight:bold;font-stretch:normal;font-size:2.40026736px;line-height:125%;font-family:sans-serif;-inkscape-font-specification:'sans-serif Bold';letter-spacing:0px;word-spacing:0px;fill:#000000;fill-opacity:1;stroke:none;stroke-width:0.06000668px;stroke-linecap:butt;stroke-linejoin:miter;stroke-opacity:1"
             x="76.316879"
             y="226.96352"
             id="text5756"><tspan
               sodipodi:role="line"
               id="tspan5754"
               x="76.316879"
               y="226.96352"
               style="font-style:normal;font-variant:normal;font-weight:bold;font-stretch:normal;font-family:sans-serif;-inkscape-font-specification:'sans-serif Bold';fill:#000000;fill-opacity:1;stroke-width:0.06000668px">10</tspan></text>
        </g>
        <g
           id="g10701"
           transform="matrix(7.6843769,0,0,7.6843769,-1903.563,-1486.5072)"
           style="fill:#d40000;stroke:none">
          <path
             sodipodi:nodetypes="ccccccccc"
             inkscape:connector-curvature="0"
             id="path849"
             d="m 261.21286,200.89329 -1.14491,0.33683 0.004,-0.72763 h 2.26058 l -1.27923,1.54477 1.14012,-0.20806 0.15514,0.66341 h -2.17153 z"
             style="fill:#d40000;fill-opacity:1;fill-rule:evenodd;stroke:none;stroke-width:0.04439703;stroke-linecap:butt;stroke-linejoin:miter;stroke-miterlimit:4;stroke-dasharray:none;stroke-opacity:1" />
          <g
             transform="matrix(0.01724845,0,0,0.01609357,266.13126,199.20497)"
             id="g863"
             style="fill:#d40000;stroke:none">
            <path
               style="fill:#d40000;fill-opacity:1;fill-rule:evenodd;stroke:none;stroke-width:2.64583325;stroke-linecap:butt;stroke-linejoin:miter;stroke-miterlimit:4;stroke-dasharray:none;stroke-opacity:1"
               d="m -219.32677,204.90404 -19.07917,-71.20441 h 61.66689 l -19.14665,71.45625 z"
               id="path857"
               inkscape:connector-curvature="0" />
            <ellipse
               style="fill:#d40000;fill-opacity:1;fill-rule:evenodd;stroke:none;stroke-width:2.64583325;stroke-linecap:butt;stroke-linejoin:miter;stroke-miterlimit:4;stroke-dasharray:none;stroke-opacity:1"
               id="path859"
               cx="-207.57249"
               cy="106.6861"
               rx="24.487942"
               ry="25.818808" />
          </g>
          <path
             sodipodi:nodetypes="cccccccccccc"
             inkscape:connector-curvature="0"
             style="fill:#d40000;fill-opacity:1;fill-rule:evenodd;stroke:none;stroke-width:0.03970541;stroke-linecap:butt;stroke-linejoin:miter;stroke-miterlimit:4;stroke-dasharray:none;stroke-opacity:1"
             d="m 262.98229,200.48528 v 1.97518 l 0.27684,0.0235 0.16633,-0.81834 0.75631,-0.28683 v -0.62705 z m 0.43832,0.39697 0.42115,0.0964 v 0.24655 l -0.42277,0.11696 z"
             id="path870" />
          <path
             id="path890"
             d="m 263.74507,200.52194 v 1.97518 l 0.27684,0.0235 0.16633,-0.81833 0.75631,-0.28683 v -0.62705 z m 0.43832,0.39697 0.42115,0.0964 v 0.24654 l -0.42277,0.11697 z"
             style="fill:#d40000;fill-opacity:1;fill-rule:evenodd;stroke:none;stroke-width:0.03970541;stroke-linecap:butt;stroke-linejoin:miter;stroke-miterlimit:4;stroke-dasharray:none;stroke-opacity:1"
             inkscape:connector-curvature="0"
             sodipodi:nodetypes="cccccccccccc" />
          <path
             inkscape:connector-curvature="0"
             id="path872"
             d="m 264.30762,200.56507 0.63693,0.16636 0.24355,0.83497 0.37604,-0.7957 0.78284,-0.20447 -0.91125,1.2505 0.0734,0.73311 -0.66036,-0.0179 0.22012,-0.73311 z"
             style="fill:#d40000;fill-opacity:1;fill-rule:evenodd;stroke:none;stroke-width:0.04500594;stroke-linecap:butt;stroke-linejoin:miter;stroke-miterlimit:4;stroke-dasharray:none;stroke-opacity:1" />
        </g>
      </g>
    </g>
  </g>
</svg>
