<?xml version="1.0" encoding="UTF-8" standalone="no"?>
<!-- Created with Inkscape (http://www.inkscape.org/) -->

<svg
   xmlns:dc="http://purl.org/dc/elements/1.1/"
   xmlns:cc="http://creativecommons.org/ns#"
   xmlns:rdf="http://www.w3.org/1999/02/22-rdf-syntax-ns#"
   xmlns:svg="http://www.w3.org/2000/svg"
   xmlns="http://www.w3.org/2000/svg"
   xmlns:sodipodi="http://sodipodi.sourceforge.net/DTD/sodipodi-0.dtd"
   xmlns:inkscape="http://www.inkscape.org/namespaces/inkscape"
   width="17.438278mm"
   height="17.43861mm"
   viewBox="0 0 17.438278 17.43861"
   version="1.1"
   id="svg8"
   inkscape:version="0.92.2 5c3e80d, 2017-08-06"
   sodipodi:docname="loading.svg">
  <defs
     id="defs2" />
  <sodipodi:namedview
     id="base"
     pagecolor="#ffffff"
     bordercolor="#666666"
     borderopacity="1.0"
     inkscape:pageopacity="0.0"
     inkscape:pageshadow="2"
     inkscape:zoom="8.2840604"
     inkscape:cx="32.954227"
     inkscape:cy="32.954854"
     inkscape:document-units="mm"
     inkscape:current-layer="layer1"
     showgrid="false"
     fit-margin-top="0"
     fit-margin-left="0"
     fit-margin-right="0"
     fit-margin-bottom="0"
     inkscape:window-width="1323"
     inkscape:window-height="723"
     inkscape:window-x="43"
     inkscape:window-y="1"
     inkscape:window-maximized="1" />
  <metadata
     id="metadata5">
    <rdf:RDF>
      <cc:Work
         rdf:about="">
        <dc:format>image/svg+xml</dc:format>
        <dc:type
           rdf:resource="http://purl.org/dc/dcmitype/StillImage" />
        <dc:title />
      </cc:Work>
    </rdf:RDF>
  </metadata>
  <g
     inkscape:label="Layer 1"
     inkscape:groupmode="layer"
     id="layer1"
     transform="translate(-89.382002,-137.60174)">
    <g
       id="g2169"
       inkscape:export-xdpi="34.959999"
       inkscape:export-ydpi="34.959999"
       inkscape:export-filename="/Users/thuthuaungayenyein/Documents/android_workspace/FunnyFarmSlot/android/assets/ldpi/still/loading.png">
      <path
         id="path2158"
         d="m 98.101366,137.60174 a 8.7192545,8.7192545 0 0 0 -0.661458,0.0336 v 4.17856 a 4.5593431,4.5593431 0 0 1 0.661458,-0.0522 4.5593431,4.5593431 0 0 1 0.661458,0.0543 v -4.18631 a 8.7192545,8.7192545 0 0 0 -0.661458,-0.0279 z"
         style="opacity:1;fill:#006680;fill-opacity:1;stroke:none;stroke-width:0.32219955;stroke-linejoin:round;stroke-miterlimit:4;stroke-dasharray:none;stroke-opacity:1"
         inkscape:connector-curvature="0" />
      <path
         id="path2156"
         d="m 92.423675,139.70859 a 8.7192545,8.7192545 0 0 0 -0.930691,0.93999 l 2.954341,2.95435 a 4.5593431,4.5593431 0 0 1 0.934828,-0.93586 z"
         style="opacity:1;fill:#d5f6ff;fill-opacity:1;stroke:none;stroke-width:0.32219955;stroke-linejoin:round;stroke-miterlimit:4;stroke-dasharray:none;stroke-opacity:1"
         inkscape:connector-curvature="0" />
      <path
         id="path2154"
         d="m 103.77389,139.71259 -2.95486,2.95486 a 4.5593431,4.5593431 0 0 1 0.93638,0.93483 l 2.95847,-2.95847 a 8.7192545,8.7192545 0 0 0 -0.93999,-0.93122 z"
         style="opacity:1;fill:#0088aa;fill-opacity:1;stroke:none;stroke-width:0.32219955;stroke-linejoin:round;stroke-miterlimit:4;stroke-dasharray:none;stroke-opacity:1"
         inkscape:connector-curvature="0" />
      <path
         id="path2152"
         d="m 89.408872,145.65952 a 8.7192545,8.7192545 0 0 0 -0.02687,0.66146 8.7192545,8.7192545 0 0 0 0.03307,0.66146 h 4.179072 a 4.5593431,4.5593431 0 0 1 -0.05219,-0.66146 4.5593431,4.5593431 0 0 1 0.05374,-0.66146 z"
         style="opacity:1;fill:#aaeeff;fill-opacity:1;stroke:none;stroke-width:0.32219955;stroke-linejoin:round;stroke-miterlimit:4;stroke-dasharray:none;stroke-opacity:1"
         inkscape:connector-curvature="0" />
      <path
         id="path2150"
         d="m 102.60807,145.65952 a 4.5593431,4.5593431 0 0 1 0.0522,0.66146 4.5593431,4.5593431 0 0 1 -0.0537,0.66146 h 4.18631 a 8.7192545,8.7192545 0 0 0 0.0274,-0.66146 8.7192545,8.7192545 0 0 0 -0.0331,-0.66146 z"
         style="opacity:1;fill:#00aad4;fill-opacity:1;stroke:none;stroke-width:0.32219955;stroke-linejoin:round;stroke-miterlimit:4;stroke-dasharray:none;stroke-opacity:1"
         inkscape:connector-curvature="0" />
      <path
         id="path2148"
         d="m 101.75489,149.03916 a 4.5593431,4.5593431 0 0 1 -0.93586,0.93586 l 2.95899,2.95899 a 8.7192545,8.7192545 0 0 0 0.93121,-0.94051 z"
         style="opacity:1;fill:#2ad4ff;fill-opacity:1;stroke:none;stroke-width:0.32219955;stroke-linejoin:round;stroke-miterlimit:4;stroke-dasharray:none;stroke-opacity:1"
         inkscape:connector-curvature="0" />
      <path
         id="path2146"
         d="m 94.446809,149.03967 -2.958476,2.95848 a 8.7192545,8.7192545 0 0 0 0.939993,0.93121 l 2.954859,-2.95486 a 4.5593431,4.5593431 0 0 1 -0.936376,-0.93483 z"
         style="opacity:1;fill:#80e5ff;fill-opacity:1;stroke:none;stroke-width:0.32219955;stroke-linejoin:round;stroke-miterlimit:4;stroke-dasharray:none;stroke-opacity:1"
         inkscape:connector-curvature="0" />
      <path
         id="rect819"
         d="m 97.439908,150.82664 v 4.18631 a 8.7192545,8.7192545 0 0 0 0.661458,0.0274 8.7192545,8.7192545 0 0 0 0.661458,-0.0336 v -4.17856 a 4.5593431,4.5593431 0 0 1 -0.661458,0.0522 4.5593431,4.5593431 0 0 1 -0.661458,-0.0537 z"
         style="opacity:1;fill:#55ddff;fill-opacity:1;stroke:none;stroke-width:0.32219955;stroke-linejoin:round;stroke-miterlimit:4;stroke-dasharray:none;stroke-opacity:1"
         inkscape:connector-curvature="0" />
    </g>
    <text
       xml:space="preserve"
       style="font-style:normal;font-weight:normal;font-size:10.58333302px;line-height:125%;font-family:sans-serif;letter-spacing:0px;word-spacing:0px;fill:#000000;fill-opacity:1;stroke:none;stroke-width:0.26458332px;stroke-linecap:butt;stroke-linejoin:miter;stroke-opacity:1"
       x="9.8683071"
       y="144.4006"
       id="text2173"><tspan
         sodipodi:role="line"
         id="tspan2171"
         x="9.8683071"
         y="144.4006"
         style="stroke-width:0.26458332px">dev logo color</tspan><tspan
         sodipodi:role="line"
         x="9.8683071"
         y="157.62978"
         style="stroke-width:0.26458332px"
         id="tspan2175">00aad4ff</tspan></text>
  </g>
</svg>
